Disorientation Sans-Default.ufo
<glyph name="period" format="2">
  <advance width="140"/>
  <unicode hex="002E"/>
  <outline>
    <contour>
      <point x="71" y="0" type="curve" smooth="yes"/>
      <point x="108" y="0"/>
      <point x="130" y="26"/>
      <point x="130" y="63" type="curve" smooth="yes"/>
      <point x="130" y="100"/>
      <point x="108" y="125"/>
      <point x="71" y="125" type="curve" smooth="yes"/>
      <point x="34" y="125"/>
      <point x="10" y="100"/>
      <point x="10" y="63" type="curve" smooth="yes"/>
      <point x="10" y="26"/>
      <point x="34" y="0"/>
    </contour>
  </outline>
</glyph>
<glyph name="zero" format="2">
  <advance width="601"/>
  <unicode hex="0030"/>
  <outline>
    <contour>
      <point x="297" y="-8" type="curve" smooth="yes"/>
      <point x="492" y="-8"/>
      <point x="576" y="135"/>
      <point x="576" y="350" type="curve" smooth="yes"/>
      <point x="576" y="565"/>
      <point x="492" y="708"/>
      <point x="297" y="708" type="curve" smooth="yes"/>
      <point x="102" y="708"/>
      <point x="25" y="565"/>
      <point x="25" y="350" type="curve" smooth="yes"/>
      <point x="25" y="135"/>
      <point x="102" y="-8"/>
    </contour>
    <contour>
      <point x="297" y="82" type="curve" smooth="yes"/>
      <point x="157" y="82"/>
      <point x="130" y="185"/>
      <point x="130" y="350" type="curve" smooth="yes"/>
      <point x="130" y="515"/>
      <point x="157" y="618"/>
      <point x="297" y="618" type="curve" smooth="yes"/>
      <point x="437" y="618"/>
      <point x="471" y="515"/>
      <point x="471" y="350" type="curve" smooth="yes"/>
      <point x="471" y="185"/>
      <point x="437" y="82"/>
    </contour>
  </outline>
</glyph>
<glyph name="one" format="2">
  <advance width="335"/>
  <unicode hex="0031"/>
  <outline>
    <contour>
      <point x="220" y="700" type="line"/>
      <point x="220" y="600"/>
      <point x="195" y="575"/>
      <point x="25" y="575" type="curve"/>
      <point x="25" y="495" type="line"/>
      <point x="210" y="495" type="line"/>
      <point x="210" y="0" type="line"/>
      <point x="310" y="0" type="line"/>
      <point x="310" y="700" type="line"/>
    </contour>
  </outline>
</glyph>
<glyph name="three" format="2">
  <advance width="600"/>
  <unicode hex="0033"/>
  <outline>
    <contour>
      <point x="137" y="272" type="curve"/>
      <point x="32" y="288" type="line"/>
      <point x="24" y="250"/>
      <point x="22" y="225"/>
      <point x="22" y="207" type="curve" smooth="yes"/>
      <point x="22" y="92"/>
      <point x="108" y="-8"/>
      <point x="298" y="-8" type="curve" smooth="yes"/>
      <point x="488" y="-8"/>
      <point x="573" y="92"/>
      <point x="573" y="207" type="curve" smooth="yes"/>
      <point x="573" y="297"/>
      <point x="516" y="347"/>
      <point x="445" y="379" type="curve"/>
      <point x="496" y="413"/>
      <point x="535" y="463"/>
      <point x="535" y="524" type="curve" smooth="yes"/>
      <point x="535" y="629"/>
      <point x="438" y="708"/>
      <point x="298" y="708" type="curve" smooth="yes"/>
      <point x="158" y="708"/>
      <point x="60" y="629"/>
      <point x="60" y="524" type="curve" smooth="yes"/>
      <point x="60" y="507" type="line"/>
      <point x="160" y="500" type="line"/>
      <point x="160" y="519" type="line" smooth="yes"/>
      <point x="160" y="579"/>
      <point x="208" y="618"/>
      <point x="298" y="618" type="curve" smooth="yes"/>
      <point x="388" y="618"/>
      <point x="435" y="579"/>
      <point x="435" y="519" type="curve" smooth="yes"/>
      <point x="435" y="459"/>
      <point x="388" y="420"/>
      <point x="298" y="420" type="curve" smooth="yes"/>
      <point x="267" y="420" type="line"/>
      <point x="267" y="330" type="line"/>
      <point x="298" y="330" type="line" smooth="yes"/>
      <point x="398" y="330"/>
      <point x="468" y="302"/>
      <point x="468" y="207" type="curve" smooth="yes"/>
      <point x="468" y="112"/>
      <point x="398" y="82"/>
      <point x="298" y="82" type="curve" smooth="yes"/>
      <point x="198" y="82"/>
      <point x="127" y="112"/>
      <point x="127" y="207" type="curve" smooth="yes"/>
      <point x="127" y="232"/>
      <point x="132" y="256"/>
    </contour>
  </outline>
</glyph>
<glyph name="four" format="2">
  <advance width="600"/>
  <unicode hex="0034"/>
  <outline>
    <contour>
      <point x="22" y="266" type="line"/>
      <point x="22" y="176" type="line"/>
      <point x="365" y="176" type="line"/>
      <point x="365" y="0" type="line"/>
      <point x="470" y="0" type="line"/>
      <point x="470" y="176" type="line"/>
      <point x="582" y="176" type="line"/>
      <point x="582" y="266" type="line"/>
      <point x="470" y="266" type="line"/>
      <point x="470" y="700" type="line"/>
      <point x="294" y="700" type="line"/>
    </contour>
    <contour>
      <point x="138" y="266" type="line"/>
      <point x="365" y="624" type="line"/>
      <point x="365" y="266" type="line"/>
    </contour>
  </outline>
</glyph>
<glyph name="five" format="2">
  <advance width="600"/>
  <unicode hex="0035"/>
  <outline>
    <contour>
      <point x="0" y="0"/>
    </contour>
    <contour>
      <point x="108" y="700" type="line"/>
      <point x="67" y="415" type="line"/>
      <point x="148" y="343" type="line"/>
      <point x="186" y="610" type="line"/>
      <point x="524" y="610" type="line"/>
      <point x="524" y="700" type="line"/>
    </contour>
    <contour>
      <point x="298" y="464" type="curve"/>
      <point x="240" y="464"/>
      <point x="188" y="447"/>
      <point x="130" y="404" type="curve"/>
      <point x="148" y="343" type="line"/>
      <point x="198" y="373"/>
      <point x="248" y="374"/>
      <point x="298" y="374" type="curve" smooth="yes"/>
      <point x="438" y="374"/>
      <point x="468" y="302"/>
      <point x="468" y="207" type="curve" smooth="yes"/>
      <point x="468" y="112"/>
      <point x="398" y="82"/>
      <point x="298" y="82" type="curve" smooth="yes"/>
      <point x="198" y="82"/>
      <point x="137" y="122"/>
      <point x="137" y="217" type="curve"/>
      <point x="32" y="227" type="line"/>
      <point x="32" y="112"/>
      <point x="108" y="-8"/>
      <point x="298" y="-8" type="curve" smooth="yes"/>
      <point x="488" y="-8"/>
      <point x="573" y="92"/>
      <point x="573" y="207" type="curve" smooth="yes"/>
      <point x="573" y="342"/>
      <point x="509" y="464"/>
    </contour>
  </outline>
</glyph>
<glyph name="six" format="2">
  <advance width="600"/>
  <unicode hex="0036"/>
  <outline>
    <contour>
      <point x="468" y="526" type="curve"/>
      <point x="573" y="526" type="line"/>
      <point x="573" y="596"/>
      <point x="500" y="729"/>
      <point x="310" y="729" type="curve" smooth="yes"/>
      <point x="120" y="729"/>
      <point x="25" y="586"/>
      <point x="25" y="371" type="curve" smooth="yes"/>
      <point x="25" y="156"/>
      <point x="115" y="13"/>
      <point x="310" y="13" type="curve" smooth="yes"/>
      <point x="505" y="13"/>
      <point x="576" y="120"/>
      <point x="576" y="241" type="curve" smooth="yes"/>
      <point x="576" y="401"/>
      <point x="450" y="463"/>
      <point x="310" y="463" type="curve" smooth="yes"/>
      <point x="231" y="463"/>
      <point x="153" y="443"/>
      <point x="125" y="394" type="curve"/>
      <point x="138" y="593"/>
      <point x="210" y="639"/>
      <point x="310" y="639" type="curve" smooth="yes"/>
      <point x="410" y="639"/>
      <point x="468" y="593"/>
    </contour>
    <contour>
      <point x="476" y="241" type="curve" smooth="yes"/>
      <point x="476" y="146"/>
      <point x="410" y="103"/>
      <point x="310" y="103" type="curve" smooth="yes"/>
      <point x="210" y="103"/>
      <point x="151" y="146"/>
      <point x="151" y="241" type="curve"/>
      <point x="151" y="336"/>
      <point x="210" y="373"/>
      <point x="310" y="373" type="curve" smooth="yes"/>
      <point x="410" y="373"/>
      <point x="476" y="336"/>
    </contour>
  </outline>
</glyph>
<glyph name="seven" format="2">
  <advance width="477"/>
  <unicode hex="0037"/>
  <outline>
    <contour>
      <point x="477" y="700" type="line"/>
      <point x="0" y="700" type="line"/>
      <point x="0" y="610" type="line"/>
      <point x="352" y="610" type="line"/>
      <point x="252" y="502"/>
      <point x="175" y="297"/>
      <point x="175" y="0" type="curve"/>
      <point x="275" y="0" type="line"/>
      <point x="275" y="297"/>
      <point x="365" y="502"/>
      <point x="475" y="610" type="curve"/>
    </contour>
  </outline>
</glyph>
<glyph name="nine" format="2">
  <advance width="600"/>
  <unicode hex="0039"/>
  <outline>
    <contour>
      <point x="130" y="195" type="curve"/>
      <point x="25" y="195" type="line"/>
      <point x="25" y="125"/>
      <point x="98" y="-8"/>
      <point x="288" y="-8" type="curve" smooth="yes"/>
      <point x="478" y="-8"/>
      <point x="573" y="135"/>
      <point x="573" y="350" type="curve" smooth="yes"/>
      <point x="573" y="565"/>
      <point x="483" y="708"/>
      <point x="288" y="708" type="curve" smooth="yes"/>
      <point x="93" y="708"/>
      <point x="22" y="601"/>
      <point x="22" y="480" type="curve" smooth="yes"/>
      <point x="22" y="320"/>
      <point x="148" y="258"/>
      <point x="288" y="258" type="curve" smooth="yes"/>
      <point x="367" y="258"/>
      <point x="445" y="278"/>
      <point x="473" y="327" type="curve"/>
      <point x="460" y="128"/>
      <point x="388" y="82"/>
      <point x="288" y="82" type="curve" smooth="yes"/>
      <point x="188" y="82"/>
      <point x="130" y="128"/>
    </contour>
    <contour>
      <point x="122" y="480" type="curve" smooth="yes"/>
      <point x="122" y="575"/>
      <point x="188" y="618"/>
      <point x="288" y="618" type="curve" smooth="yes"/>
      <point x="388" y="618"/>
      <point x="447" y="575"/>
      <point x="447" y="480" type="curve"/>
      <point x="447" y="385"/>
      <point x="388" y="348"/>
      <point x="288" y="348" type="curve" smooth="yes"/>
      <point x="188" y="348"/>
      <point x="122" y="385"/>
    </contour>
  </outline>
</glyph>
<glyph name="B" format="2">
  <advance width="588"/>
  <unicode hex="0042"/>
  <outline>
    <contour>
      <point x="45" y="0" type="line"/>
      <point x="302" y="0" type="line" smooth="yes"/>
      <point x="478" y="0"/>
      <point x="563" y="67"/>
      <point x="563" y="212" type="curve" smooth="yes"/>
      <point x="563" y="276"/>
      <point x="536" y="334"/>
      <point x="461" y="373" type="curve"/>
      <point x="509" y="409"/>
      <point x="536" y="456"/>
      <point x="536" y="524" type="curve" smooth="yes"/>
      <point x="536" y="640"/>
      <point x="444" y="700"/>
      <point x="302" y="700" type="curve" smooth="yes"/>
      <point x="45" y="700" type="line"/>
    </contour>
    <contour>
      <point x="150" y="89" type="line"/>
      <point x="150" y="327" type="line"/>
      <point x="302" y="327" type="line" smooth="yes"/>
      <point x="398" y="327"/>
      <point x="458" y="277"/>
      <point x="458" y="212" type="curve" smooth="yes"/>
      <point x="458" y="136"/>
      <point x="413" y="91"/>
      <point x="302" y="90" type="curve" smooth="yes"/>
    </contour>
    <contour>
      <point x="150" y="417" type="line"/>
      <point x="150" y="610" type="line"/>
      <point x="302" y="610" type="line" smooth="yes"/>
      <point x="374" y="610"/>
      <point x="431" y="580"/>
      <point x="431" y="524" type="curve" smooth="yes"/>
      <point x="431" y="452"/>
      <point x="391" y="417"/>
      <point x="302" y="417" type="curve" smooth="yes"/>
    </contour>
  </outline>
</glyph>
<glyph name="G" format="2">
  <advance width="701"/>
  <unicode hex="0047"/>
  <outline>
    <contour>
      <point x="676" y="0" type="line"/>
      <point x="676" y="370" type="line"/>
      <point x="334" y="369" type="line"/>
      <point x="334" y="279" type="line"/>
      <point x="555" y="279" type="line"/>
      <point x="554" y="184"/>
      <point x="487" y="82"/>
      <point x="347" y="82" type="curve" smooth="yes"/>
      <point x="207" y="82"/>
      <point x="130" y="185"/>
      <point x="130" y="350" type="curve" smooth="yes"/>
      <point x="130" y="515"/>
      <point x="207" y="618"/>
      <point x="347" y="618" type="curve" smooth="yes"/>
      <point x="466" y="618"/>
      <point x="557" y="543"/>
      <point x="575" y="461" type="curve"/>
      <point x="676" y="478" type="line"/>
      <point x="631" y="636"/>
      <point x="488" y="708"/>
      <point x="347" y="708" type="curve" smooth="yes"/>
      <point x="152" y="708"/>
      <point x="25" y="565"/>
      <point x="25" y="350" type="curve" smooth="yes"/>
      <point x="25" y="135"/>
      <point x="152" y="-8"/>
      <point x="347" y="-8" type="curve" smooth="yes"/>
      <point x="542" y="-8"/>
      <point x="595" y="136"/>
      <point x="585" y="279" type="curve"/>
      <point x="585" y="0" type="line"/>
    </contour>
  </outline>
</glyph>
<glyph name="W" format="2">
  <advance width="874"/>
  <unicode hex="0057"/>
  <outline>
    <contour>
      <point x="0" y="700" type="line"/>
      <point x="153" y="0" type="line"/>
      <point x="293" y="0" type="line"/>
      <point x="430" y="548" type="line"/>
      <point x="548" y="0" type="line"/>
      <point x="688" y="0" type="line"/>
      <point x="874" y="700" type="line"/>
      <point x="769" y="700" type="line"/>
      <point x="616" y="110" type="line"/>
      <point x="502" y="700" type="line"/>
      <point x="372" y="700" type="line"/>
      <point x="233" y="110" type="line"/>
      <point x="105" y="700" type="line"/>
    </contour>
  </outline>
</glyph>
<glyph name="f" format="2">
  <advance width="357"/>
  <unicode hex="0066"/>
  <outline>
    <contour>
      <point x="357" y="755" type="line"/>
      <point x="335" y="782"/>
      <point x="297" y="793"/>
      <point x="258" y="793" type="curve" smooth="yes"/>
      <point x="141" y="793"/>
      <point x="84" y="742"/>
      <point x="84" y="626" type="curve" smooth="yes"/>
      <point x="84" y="-1" type="line"/>
      <point x="184" y="-1" type="line"/>
      <point x="184" y="621" type="line"/>
      <point x="184" y="695"/>
      <point x="223" y="713"/>
      <point x="258" y="713" type="curve" smooth="yes"/>
      <point x="288" y="713"/>
      <point x="326" y="700"/>
      <point x="357" y="675" type="curve"/>
    </contour>
    <contour>
      <point x="0" y="416" type="line"/>
      <point x="350" y="416" type="line"/>
      <point x="350" y="496" type="line"/>
      <point x="0" y="496" type="line"/>
    </contour>
  </outline>
</glyph>
<glyph name="g" format="2">
  <advance width="512"/>
  <unicode hex="0067"/>
  <outline>
    <contour>
      <point x="477" y="500" type="line"/>
      <point x="377" y="500" type="line"/>
      <point x="377" y="0" type="line"/>
      <point x="477" y="0" type="line"/>
    </contour>
    <contour>
      <point x="223" y="-8" type="curve" smooth="yes"/>
      <point x="363" y="-8"/>
      <point x="395" y="88"/>
      <point x="395" y="250" type="curve" smooth="yes"/>
      <point x="395" y="411"/>
      <point x="353" y="508"/>
      <point x="223" y="508" type="curve" smooth="yes"/>
      <point x="83" y="508"/>
      <point x="15" y="398"/>
      <point x="15" y="248" type="curve" smooth="yes"/>
      <point x="15" y="90"/>
      <point x="83" y="-8"/>
    </contour>
    <contour>
      <point x="243" y="72" type="curve" smooth="yes"/>
      <point x="153" y="72"/>
      <point x="115" y="138"/>
      <point x="115" y="248" type="curve" smooth="yes"/>
      <point x="115" y="358"/>
      <point x="153" y="428"/>
      <point x="243" y="428" type="curve" smooth="yes"/>
      <point x="338" y="428"/>
      <point x="377" y="353"/>
      <point x="377" y="250" type="curve" smooth="yes"/>
      <point x="377" y="146"/>
      <point x="338" y="72"/>
    </contour>
    <contour>
      <point x="477" y="0" type="curve"/>
      <point x="377" y="0" type="line"/>
      <point x="377" y="-82"/>
      <point x="326" y="-128"/>
      <point x="241" y="-128" type="curve" smooth="yes"/>
      <point x="171" y="-128"/>
      <point x="134" y="-97"/>
      <point x="124" y="-54" type="curve"/>
      <point x="32" y="-66" type="line"/>
      <point x="52" y="-170"/>
      <point x="132" y="-208"/>
      <point x="241" y="-208" type="curve" smooth="yes"/>
      <point x="391" y="-208"/>
      <point x="477" y="-136"/>
    </contour>
  </outline>
</glyph>
<glyph name="i" format="2">
  <advance width="190"/>
  <unicode hex="0069"/>
  <outline>
    <contour>
      <point x="44" y="500" type="line"/>
      <point x="44" y="0" type="line"/>
      <point x="144" y="0" type="line"/>
      <point x="144" y="500" type="line"/>
    </contour>
    <contour>
      <point x="96" y="552" type="curve" smooth="yes"/>
      <point x="133" y="552"/>
      <point x="155" y="578"/>
      <point x="155" y="615" type="curve" smooth="yes"/>
      <point x="155" y="652"/>
      <point x="133" y="677"/>
      <point x="96" y="677" type="curve" smooth="yes"/>
      <point x="59" y="677"/>
      <point x="35" y="652"/>
      <point x="35" y="615" type="curve" smooth="yes"/>
      <point x="35" y="578"/>
      <point x="59" y="552"/>
    </contour>
  </outline>
</glyph>
<glyph name="k" format="2">
  <advance width="415"/>
  <unicode hex="006B"/>
  <outline>
    <contour>
      <point x="118" y="270" type="line"/>
      <point x="311" y="0" type="line"/>
      <point x="414" y="0" type="line"/>
      <point x="225" y="270" type="line"/>
      <point x="415" y="499" type="line"/>
      <point x="309" y="499" type="line"/>
    </contour>
    <contour>
      <point x="35" y="800" type="line"/>
      <point x="35" y="0" type="line"/>
      <point x="135" y="0" type="line"/>
      <point x="135" y="800" type="line"/>
    </contour>
  </outline>
</glyph>
<glyph name="q" format="2">
  <advance width="512"/>
  <unicode hex="0071"/>
  <outline>
    <contour>
      <point x="477" y="500" type="line"/>
      <point x="377" y="500" type="line"/>
      <point x="377" y="-200" type="line"/>
      <point x="477" y="-200" type="line"/>
    </contour>
    <contour>
      <point x="223" y="-8" type="curve" smooth="yes"/>
      <point x="357" y="-8"/>
      <point x="395" y="104"/>
      <point x="395" y="250" type="curve" smooth="yes"/>
      <point x="395" y="411"/>
      <point x="375" y="508"/>
      <point x="223" y="508" type="curve" smooth="yes"/>
      <point x="93" y="508"/>
      <point x="15" y="398"/>
      <point x="15" y="248" type="curve" smooth="yes"/>
      <point x="15" y="90"/>
      <point x="73" y="-8"/>
    </contour>
    <contour>
      <point x="244" y="72" type="curve" smooth="yes"/>
      <point x="154" y="72"/>
      <point x="116" y="140"/>
      <point x="115" y="248" type="curve" smooth="yes"/>
      <point x="116" y="361"/>
      <point x="169" y="428"/>
      <point x="256" y="428" type="curve" smooth="yes"/>
      <point x="333" y="428"/>
      <point x="377" y="353"/>
      <point x="377" y="250" type="curve" smooth="yes"/>
      <point x="377" y="146"/>
      <point x="322" y="72"/>
    </contour>
  </outline>
</glyph>
<glyph name="u" format="2">
  <advance width="484"/>
  <unicode hex="0075"/>
  <outline>
    <contour>
      <point x="449" y="0" type="line"/>
      <point x="449" y="500" type="line"/>
      <point x="349" y="500" type="line"/>
      <point x="349" y="101" type="line"/>
      <point x="349" y="0" type="line"/>
    </contour>
    <contour>
      <point x="135" y="187" type="curve"/>
      <point x="135" y="500" type="line"/>
      <point x="35" y="500" type="line"/>
      <point x="35" y="187" type="line" smooth="yes"/>
      <point x="35" y="91"/>
      <point x="65" y="-8"/>
      <point x="205" y="-8" type="curve" smooth="yes"/>
      <point x="343" y="-8"/>
      <point x="367" y="89"/>
      <point x="367" y="250" type="curve"/>
      <point x="349" y="250" type="line"/>
      <point x="349" y="126"/>
      <point x="308" y="72"/>
      <point x="238" y="72" type="curve" smooth="yes"/>
      <point x="165" y="72"/>
      <point x="135" y="131"/>
    </contour>
  </outline>
</glyph>
<glyph name="A.init" format="2">
  <advance width="760"/>
  <outline>
    <contour>
      <point x="45" y="0" type="line"/>
      <point x="150" y="0" type="line"/>
      <point x="379" y="591" type="line"/>
      <point x="610" y="0" type="line"/>
      <point x="715" y="0" type="line"/>
      <point x="451" y="701" type="line"/>
      <point x="311" y="701" type="line"/>
    </contour>
    <contour>
      <point x="187" y="300" type="line"/>
      <point x="187" y="210" type="line"/>
      <point x="567" y="210" type="line"/>
      <point x="567" y="300" type="line"/>
    </contour>
  </outline>
</glyph>
<glyph name="D.init.alt" format="2">
  <advance width="600"/>
  <outline>
    <contour>
      <point x="40" y="700" type="line"/>
      <point x="40" y="0" type="line"/>
      <point x="269" y="0" type="line" smooth="yes"/>
      <point x="464" y="0"/>
      <point x="606" y="140"/>
      <point x="606" y="350" type="curve" smooth="yes"/>
      <point x="606" y="560"/>
      <point x="465" y="700"/>
      <point x="270" y="700" type="curve" smooth="yes"/>
    </contour>
    <contour>
      <point x="145" y="90" type="line"/>
      <point x="145" y="610" type="line"/>
      <point x="270" y="610" type="line" smooth="yes"/>
      <point x="403" y="610"/>
      <point x="501" y="510"/>
      <point x="501" y="350" type="curve" smooth="yes"/>
      <point x="501" y="190"/>
      <point x="402" y="90"/>
      <point x="269" y="90" type="curve" smooth="yes"/>
    </contour>
  </outline>
</glyph>
<glyph name="E.init" format="2">
  <advance width="522"/>
  <outline>
    <contour>
      <point x="45" y="700" type="line"/>
      <point x="45" y="0" type="line"/>
      <point x="150" y="0" type="line"/>
      <point x="150" y="700" type="line"/>
    </contour>
    <contour>
      <point x="150" y="409" type="line"/>
      <point x="150" y="319" type="line"/>
      <point x="457" y="319" type="line"/>
      <point x="457" y="409" type="line"/>
    </contour>
    <contour>
      <point x="150" y="700" type="line"/>
      <point x="150" y="610" type="line"/>
      <point x="477" y="610" type="line"/>
      <point x="477" y="700" type="line"/>
    </contour>
    <contour>
      <point x="150" y="90" type="line"/>
      <point x="150" y="0" type="line"/>
      <point x="477" y="0" type="line"/>
      <point x="477" y="90" type="line"/>
    </contour>
  </outline>
</glyph>
<glyph name="O.init" format="2">
  <advance width="701"/>
  <outline>
    <contour>
      <point x="347" y="-8" type="curve" smooth="yes"/>
      <point x="542" y="-8"/>
      <point x="676" y="135"/>
      <point x="676" y="350" type="curve" smooth="yes"/>
      <point x="676" y="565"/>
      <point x="542" y="708"/>
      <point x="347" y="708" type="curve" smooth="yes"/>
      <point x="152" y="708"/>
      <point x="25" y="565"/>
      <point x="25" y="350" type="curve" smooth="yes"/>
      <point x="25" y="135"/>
      <point x="152" y="-8"/>
    </contour>
    <contour>
      <point x="347" y="82" type="curve" smooth="yes"/>
      <point x="207" y="82"/>
      <point x="130" y="185"/>
      <point x="130" y="350" type="curve" smooth="yes"/>
      <point x="130" y="515"/>
      <point x="207" y="618"/>
      <point x="347" y="618" type="curve" smooth="yes"/>
      <point x="487" y="618"/>
      <point x="571" y="515"/>
      <point x="571" y="350" type="curve" smooth="yes"/>
      <point x="571" y="185"/>
      <point x="487" y="82"/>
    </contour>
  </outline>
</glyph>
<glyph name="P.init.alt" format="2">
  <advance width="561"/>
  <outline>
    <contour>
      <point x="45" y="700" type="line"/>
      <point x="45" y="0" type="line"/>
      <point x="150" y="0" type="line"/>
      <point x="150" y="700" type="line"/>
    </contour>
    <contour>
      <point x="150" y="378" type="line"/>
      <point x="150" y="288" type="line"/>
      <point x="312" y="288" type="line"/>
      <point x="312" y="378" type="line"/>
    </contour>
    <contour>
      <point x="150" y="700" type="line"/>
      <point x="150" y="610" type="line"/>
      <point x="312" y="610" type="line"/>
      <point x="312" y="700" type="line"/>
    </contour>
    <contour>
      <point x="312" y="700" type="curve"/>
      <point x="312" y="610" type="line"/>
      <point x="378" y="610"/>
      <point x="436" y="566"/>
      <point x="436" y="495" type="curve"/>
      <point x="436" y="425"/>
      <point x="379" y="380"/>
      <point x="312" y="378" type="curve"/>
      <point x="312" y="288" type="line"/>
      <point x="431" y="290"/>
      <point x="536" y="344"/>
      <point x="536" y="495" type="curve" smooth="yes"/>
      <point x="536" y="646"/>
      <point x="431" y="700"/>
    </contour>
  </outline>
</glyph>
<glyph name="Q.init" format="2">
  <advance width="701"/>
  <outline>
    <contour>
      <point x="347" y="-8" type="curve" smooth="yes"/>
      <point x="544" y="-8"/>
      <point x="676" y="135"/>
      <point x="676" y="350" type="curve" smooth="yes"/>
      <point x="676" y="566"/>
      <point x="544" y="710"/>
      <point x="347" y="710" type="curve" smooth="yes"/>
      <point x="154" y="710"/>
      <point x="25" y="566"/>
      <point x="25" y="350" type="curve" smooth="yes"/>
      <point x="25" y="135"/>
      <point x="154" y="-8"/>
    </contour>
    <contour>
      <point x="347" y="82" type="curve" smooth="yes"/>
      <point x="215" y="82"/>
      <point x="130" y="181"/>
      <point x="130" y="350" type="curve" smooth="yes"/>
      <point x="130" y="513"/>
      <point x="211" y="620"/>
      <point x="347" y="620" type="curve" smooth="yes"/>
      <point x="482" y="620"/>
      <point x="571" y="519"/>
      <point x="571" y="350" type="curve" smooth="yes"/>
      <point x="571" y="188"/>
      <point x="488" y="82"/>
    </contour>
    <contour>
      <point x="432" y="241" type="line"/>
      <point x="362" y="168" type="line"/>
      <point x="606" y="-75" type="line"/>
      <point x="676" y="-3" type="line"/>
    </contour>
  </outline>
</glyph>
<glyph name="R.init" format="2">
  <advance width="562"/>
  <outline>
    <contour>
      <point x="45" y="700" type="line"/>
      <point x="45" y="0" type="line"/>
      <point x="150" y="0" type="line"/>
      <point x="150" y="700" type="line"/>
    </contour>
    <contour>
      <point x="150" y="378" type="line"/>
      <point x="150" y="288" type="line"/>
      <point x="312" y="288" type="line"/>
      <point x="312" y="378" type="line"/>
    </contour>
    <contour>
      <point x="150" y="700" type="line"/>
      <point x="150" y="610" type="line"/>
      <point x="312" y="610" type="line"/>
      <point x="312" y="700" type="line"/>
    </contour>
    <contour>
      <point x="312" y="700" type="curve"/>
      <point x="312" y="610" type="line"/>
      <point x="378" y="610"/>
      <point x="436" y="569"/>
      <point x="436" y="486" type="curve"/>
      <point x="436" y="409"/>
      <point x="379" y="380"/>
      <point x="312" y="378" type="curve"/>
      <point x="312" y="288" type="line"/>
      <point x="431" y="290"/>
      <point x="536" y="335"/>
      <point x="536" y="486" type="curve" smooth="yes"/>
      <point x="536" y="637"/>
      <point x="431" y="700"/>
    </contour>
    <contour>
      <point x="239" y="306" type="line"/>
      <point x="412" y="1" type="line"/>
      <point x="537" y="0" type="line"/>
      <point x="354" y="305" type="line"/>
    </contour>
  </outline>
</glyph>
<glyph name="S.init" format="2">
  <advance width="568"/>
  <outline>
    <contour>
      <point x="20" y="499" type="curve"/>
      <point x="20" y="242"/>
      <point x="448" y="361"/>
      <point x="448" y="195" type="curve"/>
      <point x="448" y="134"/>
      <point x="381" y="93"/>
      <point x="275" y="93" type="curve" smooth="yes"/>
      <point x="185" y="93"/>
      <point x="120" y="137"/>
      <point x="120" y="206" type="curve"/>
      <point x="15" y="199" type="line"/>
      <point x="15" y="74"/>
      <point x="108" y="3"/>
      <point x="275" y="3" type="curve" smooth="yes"/>
      <point x="448" y="3"/>
      <point x="553" y="88"/>
      <point x="553" y="209" type="curve" smooth="yes"/>
      <point x="553" y="451"/>
      <point x="125" y="361"/>
      <point x="125" y="513" type="curve"/>
      <point x="126" y="578"/>
      <point x="202" y="608"/>
      <point x="275" y="608" type="curve" smooth="yes"/>
      <point x="364" y="608"/>
      <point x="446" y="562"/>
      <point x="446" y="493" type="curve"/>
      <point x="551" y="500" type="line"/>
      <point x="551" y="624"/>
      <point x="448" y="698"/>
      <point x="275" y="698" type="curve" smooth="yes"/>
      <point x="101" y="698"/>
      <point x="20" y="618"/>
    </contour>
  </outline>
</glyph>
<glyph name="V.init.alt" format="2">
  <advance width="670"/>
  <outline>
    <contour>
      <point x="0" y="701" type="line"/>
      <point x="266" y="0" type="line"/>
      <point x="406" y="0" type="line"/>
      <point x="670" y="700" type="line"/>
      <point x="565" y="700" type="line"/>
      <point x="334" y="110" type="line"/>
      <point x="105" y="701" type="line"/>
    </contour>
  </outline>
</glyph>
<glyph name="X.init.alt" format="2">
  <advance width="608"/>
  <outline>
    <contour>
      <point x="0" y="700" type="line"/>
      <point x="247" y="351" type="line"/>
      <point x="3" y="0" type="line"/>
      <point x="126" y="0" type="line"/>
      <point x="310" y="256" type="line"/>
      <point x="491" y="0" type="line"/>
      <point x="608" y="0" type="line"/>
      <point x="371" y="351" type="line"/>
      <point x="605" y="700" type="line"/>
      <point x="484" y="700" type="line"/>
      <point x="310" y="432" type="line"/>
      <point x="122" y="700" type="line"/>
    </contour>
  </outline>
</glyph>
<glyph name="Y.init.alt" format="2">
  <advance width="630"/>
  <outline>
    <contour>
      <point x="0" y="701" type="line"/>
      <point x="254" y="260" type="line"/>
      <point x="255" y="260" type="line"/>
      <point x="255" y="0" type="line"/>
      <point x="360" y="0" type="line"/>
      <point x="360" y="260" type="line"/>
      <point x="630" y="700" type="line"/>
      <point x="525" y="700" type="line"/>
      <point x="306" y="351" type="line"/>
      <point x="105" y="701" type="line"/>
    </contour>
  </outline>
</glyph>
<glyph name="a.fina.alt" format="2">
  <advance width="467"/>
  <outline>
    <contour>
      <point x="332" y="333" type="curve"/>
      <point x="332" y="0" type="line"/>
      <point x="432" y="0" type="line"/>
      <point x="432" y="338" type="line" smooth="yes"/>
      <point x="432" y="434"/>
      <point x="353" y="508"/>
      <point x="224" y="508" type="curve" smooth="yes"/>
      <point x="106" y="508"/>
      <point x="15" y="448"/>
      <point x="15" y="324" type="curve"/>
      <point x="115" y="324" type="line"/>
      <point x="115" y="383"/>
      <point x="164" y="425"/>
      <point x="224" y="425" type="curve" smooth="yes"/>
      <point x="284" y="425"/>
      <point x="332" y="383"/>
    </contour>
    <contour>
      <point x="349" y="308" type="line"/>
      <point x="108" y="308"/>
      <point x="16" y="236"/>
      <point x="16" y="128" type="curve" smooth="yes"/>
      <point x="16" y="27"/>
      <point x="106" y="-8"/>
      <point x="173" y="-8" type="curve" smooth="yes"/>
      <point x="276" y="-8"/>
      <point x="346" y="43"/>
      <point x="346" y="205" type="curve"/>
      <point x="332" y="192" type="line"/>
      <point x="332" y="149"/>
      <point x="295" y="88"/>
      <point x="240" y="70" type="curve" smooth="yes"/>
      <point x="161" y="44"/>
      <point x="97" y="81"/>
      <point x="97" y="139" type="curve" smooth="yes"/>
      <point x="97" y="216"/>
      <point x="230" y="229"/>
      <point x="349" y="229" type="curve"/>
    </contour>
  </outline>
</glyph>
<glyph name="a_a.liga.alt1" format="2">
  <advance width="924"/>
  <outline>
    <contour>
      <point x="332" y="333" type="curve"/>
      <point x="332" y="0" type="line"/>
      <point x="432" y="0" type="line"/>
      <point x="432" y="338" type="line" smooth="yes"/>
      <point x="432" y="434"/>
      <point x="353" y="508"/>
      <point x="224" y="508" type="curve" smooth="yes"/>
      <point x="106" y="508"/>
      <point x="15" y="448"/>
      <point x="15" y="324" type="curve"/>
      <point x="115" y="324" type="line"/>
      <point x="115" y="383"/>
      <point x="164" y="425"/>
      <point x="224" y="425" type="curve" smooth="yes"/>
      <point x="284" y="425"/>
      <point x="332" y="383"/>
    </contour>
    <contour>
      <point x="349" y="308" type="line"/>
      <point x="108" y="308"/>
      <point x="16" y="236"/>
      <point x="16" y="128" type="curve" smooth="yes"/>
      <point x="16" y="27"/>
      <point x="106" y="-8"/>
      <point x="173" y="-8" type="curve" smooth="yes"/>
      <point x="276" y="-8"/>
      <point x="346" y="43"/>
      <point x="346" y="205" type="curve"/>
      <point x="332" y="192" type="line"/>
      <point x="332" y="149"/>
      <point x="295" y="88"/>
      <point x="240" y="70" type="curve" smooth="yes"/>
      <point x="161" y="44"/>
      <point x="97" y="81"/>
      <point x="97" y="139" type="curve" smooth="yes"/>
      <point x="97" y="216"/>
      <point x="230" y="229"/>
      <point x="349" y="229" type="curve"/>
    </contour>
    <contour>
      <point x="794" y="333" type="curve"/>
      <point x="794" y="0" type="line"/>
      <point x="894" y="0" type="line"/>
      <point x="894" y="338" type="line" smooth="yes"/>
      <point x="894" y="434"/>
      <point x="815" y="508"/>
      <point x="686" y="508" type="curve" smooth="yes"/>
      <point x="568" y="508"/>
      <point x="477" y="448"/>
      <point x="477" y="324" type="curve"/>
      <point x="577" y="324" type="line"/>
      <point x="577" y="383"/>
      <point x="626" y="425"/>
      <point x="686" y="425" type="curve" smooth="yes"/>
      <point x="746" y="425"/>
      <point x="794" y="383"/>
    </contour>
    <contour>
      <point x="811" y="308" type="line"/>
      <point x="570" y="308"/>
      <point x="478" y="236"/>
      <point x="478" y="128" type="curve" smooth="yes"/>
      <point x="478" y="27"/>
      <point x="568" y="-8"/>
      <point x="635" y="-8" type="curve" smooth="yes"/>
      <point x="738" y="-8"/>
      <point x="808" y="43"/>
      <point x="808" y="205" type="curve"/>
      <point x="794" y="192" type="line"/>
      <point x="794" y="149"/>
      <point x="757" y="88"/>
      <point x="702" y="70" type="curve" smooth="yes"/>
      <point x="623" y="44"/>
      <point x="559" y="81"/>
      <point x="559" y="139" type="curve" smooth="yes"/>
      <point x="559" y="216"/>
      <point x="692" y="229"/>
      <point x="811" y="229" type="curve"/>
    </contour>
  </outline>
</glyph>
<glyph name="b.fina" format="2">
  <advance width="512"/>
  <outline>
    <contour>
      <point x="35" y="800" type="line"/>
      <point x="35" y="0" type="line"/>
      <point x="135" y="0" type="line"/>
      <point x="135" y="800" type="line"/>
    </contour>
    <contour>
      <point x="289" y="-8" type="curve" smooth="yes"/>
      <point x="429" y="-8"/>
      <point x="497" y="92"/>
      <point x="497" y="250" type="curve" smooth="yes"/>
      <point x="497" y="400"/>
      <point x="429" y="508"/>
      <point x="289" y="508" type="curve" smooth="yes"/>
      <point x="159" y="508"/>
      <point x="117" y="411"/>
      <point x="117" y="250" type="curve" smooth="yes"/>
      <point x="117" y="104"/>
      <point x="140" y="-8"/>
    </contour>
    <contour>
      <point x="269" y="72" type="curve" smooth="yes"/>
      <point x="174" y="72"/>
      <point x="135" y="146"/>
      <point x="135" y="250" type="curve" smooth="yes"/>
      <point x="135" y="353"/>
      <point x="174" y="428"/>
      <point x="269" y="428" type="curve" smooth="yes"/>
      <point x="359" y="428"/>
      <point x="397" y="360"/>
      <point x="397" y="250" type="curve" smooth="yes"/>
      <point x="397" y="140"/>
      <point x="359" y="72"/>
    </contour>
  </outline>
</glyph>
<glyph name="b_b.liga.alt3" format="2">
  <advance width="1019"/>
  <outline>
    <contour>
      <point x="35" y="800" type="line"/>
      <point x="35" y="0" type="line"/>
      <point x="135" y="0" type="line"/>
      <point x="135" y="800" type="line"/>
    </contour>
    <contour>
      <point x="289" y="-8" type="curve" smooth="yes"/>
      <point x="429" y="-8"/>
      <point x="497" y="92"/>
      <point x="497" y="250" type="curve" smooth="yes"/>
      <point x="497" y="400"/>
      <point x="429" y="508"/>
      <point x="289" y="508" type="curve" smooth="yes"/>
      <point x="159" y="508"/>
      <point x="117" y="411"/>
      <point x="117" y="250" type="curve" smooth="yes"/>
      <point x="117" y="104"/>
      <point x="140" y="-8"/>
    </contour>
    <contour>
      <point x="269" y="72" type="curve" smooth="yes"/>
      <point x="174" y="72"/>
      <point x="135" y="146"/>
      <point x="135" y="250" type="curve" smooth="yes"/>
      <point x="135" y="353"/>
      <point x="174" y="428"/>
      <point x="269" y="428" type="curve" smooth="yes"/>
      <point x="359" y="428"/>
      <point x="397" y="360"/>
      <point x="397" y="250" type="curve" smooth="yes"/>
      <point x="397" y="140"/>
      <point x="359" y="72"/>
    </contour>
    <contour>
      <point x="542" y="800" type="line"/>
      <point x="542" y="0" type="line"/>
      <point x="642" y="0" type="line"/>
      <point x="642" y="800" type="line"/>
    </contour>
    <contour>
      <point x="796" y="-8" type="curve" smooth="yes"/>
      <point x="936" y="-8"/>
      <point x="1004" y="92"/>
      <point x="1004" y="250" type="curve" smooth="yes"/>
      <point x="1004" y="400"/>
      <point x="936" y="508"/>
      <point x="796" y="508" type="curve" smooth="yes"/>
      <point x="666" y="508"/>
      <point x="624" y="411"/>
      <point x="624" y="250" type="curve" smooth="yes"/>
      <point x="624" y="104"/>
      <point x="647" y="-8"/>
    </contour>
    <contour>
      <point x="776" y="72" type="curve" smooth="yes"/>
      <point x="681" y="72"/>
      <point x="642" y="146"/>
      <point x="642" y="250" type="curve" smooth="yes"/>
      <point x="642" y="353"/>
      <point x="681" y="428"/>
      <point x="776" y="428" type="curve" smooth="yes"/>
      <point x="866" y="428"/>
      <point x="904" y="360"/>
      <point x="904" y="250" type="curve" smooth="yes"/>
      <point x="904" y="140"/>
      <point x="866" y="72"/>
    </contour>
  </outline>
</glyph>
<glyph name="b_c.liga.alt1" format="2">
  <advance width="1015"/>
  <outline>
    <contour>
      <point x="35" y="800" type="line"/>
      <point x="35" y="0" type="line"/>
      <point x="135" y="0" type="line"/>
      <point x="135" y="800" type="line"/>
    </contour>
    <contour>
      <point x="289" y="-8" type="curve" smooth="yes"/>
      <point x="429" y="-8"/>
      <point x="497" y="92"/>
      <point x="497" y="250" type="curve" smooth="yes"/>
      <point x="497" y="400"/>
      <point x="429" y="508"/>
      <point x="289" y="508" type="curve" smooth="yes"/>
      <point x="159" y="508"/>
      <point x="117" y="411"/>
      <point x="117" y="250" type="curve" smooth="yes"/>
      <point x="117" y="104"/>
      <point x="140" y="-8"/>
    </contour>
    <contour>
      <point x="269" y="72" type="curve" smooth="yes"/>
      <point x="174" y="72"/>
      <point x="135" y="146"/>
      <point x="135" y="250" type="curve" smooth="yes"/>
      <point x="135" y="353"/>
      <point x="174" y="428"/>
      <point x="269" y="428" type="curve" smooth="yes"/>
      <point x="359" y="428"/>
      <point x="397" y="360"/>
      <point x="397" y="250" type="curve" smooth="yes"/>
      <point x="397" y="140"/>
      <point x="359" y="72"/>
    </contour>
    <contour>
      <point x="999" y="181" type="curve"/>
      <point x="899" y="193" type="line"/>
      <point x="890" y="146"/>
      <point x="855" y="72"/>
      <point x="765" y="72" type="curve" smooth="yes"/>
      <point x="675" y="72"/>
      <point x="627" y="145"/>
      <point x="627" y="249" type="curve" smooth="yes"/>
      <point x="627" y="352"/>
      <point x="675" y="428"/>
      <point x="765" y="428" type="curve" smooth="yes"/>
      <point x="855" y="428"/>
      <point x="896" y="354"/>
      <point x="900" y="291" type="curve"/>
      <point x="1000" y="304" type="line"/>
      <point x="984" y="420"/>
      <point x="905" y="508"/>
      <point x="765" y="508" type="curve" smooth="yes"/>
      <point x="625" y="508"/>
      <point x="527" y="410"/>
      <point x="527" y="249" type="curve" smooth="yes"/>
      <point x="527" y="103"/>
      <point x="622" y="-8"/>
      <point x="765" y="-8" type="curve" smooth="yes"/>
      <point x="889" y="-8"/>
      <point x="979" y="73"/>
    </contour>
  </outline>
</glyph>
<glyph name="c.fina.alt" format="2">
  <advance width="503"/>
  <outline>
    <contour>
      <point x="487" y="181" type="curve"/>
      <point x="387" y="193" type="line"/>
      <point x="378" y="146"/>
      <point x="343" y="72"/>
      <point x="253" y="72" type="curve" smooth="yes"/>
      <point x="163" y="72"/>
      <point x="115" y="145"/>
      <point x="115" y="249" type="curve" smooth="yes"/>
      <point x="115" y="352"/>
      <point x="163" y="428"/>
      <point x="253" y="428" type="curve" smooth="yes"/>
      <point x="343" y="428"/>
      <point x="384" y="354"/>
      <point x="388" y="291" type="curve"/>
      <point x="488" y="304" type="line"/>
      <point x="472" y="420"/>
      <point x="393" y="508"/>
      <point x="253" y="508" type="curve" smooth="yes"/>
      <point x="113" y="508"/>
      <point x="15" y="410"/>
      <point x="15" y="249" type="curve" smooth="yes"/>
      <point x="15" y="103"/>
      <point x="110" y="-8"/>
      <point x="253" y="-8" type="curve" smooth="yes"/>
      <point x="377" y="-8"/>
      <point x="467" y="73"/>
    </contour>
  </outline>
</glyph>
<glyph name="c_c.liga.alt2" format="2">
  <advance width="1006"/>
  <outline>
    <contour>
      <point x="487" y="181" type="curve"/>
      <point x="387" y="193" type="line"/>
      <point x="378" y="146"/>
      <point x="343" y="72"/>
      <point x="253" y="72" type="curve" smooth="yes"/>
      <point x="163" y="72"/>
      <point x="115" y="145"/>
      <point x="115" y="249" type="curve" smooth="yes"/>
      <point x="115" y="352"/>
      <point x="163" y="428"/>
      <point x="253" y="428" type="curve" smooth="yes"/>
      <point x="343" y="428"/>
      <point x="384" y="354"/>
      <point x="388" y="291" type="curve"/>
      <point x="488" y="304" type="line"/>
      <point x="472" y="420"/>
      <point x="393" y="508"/>
      <point x="253" y="508" type="curve" smooth="yes"/>
      <point x="113" y="508"/>
      <point x="15" y="410"/>
      <point x="15" y="249" type="curve" smooth="yes"/>
      <point x="15" y="103"/>
      <point x="110" y="-8"/>
      <point x="253" y="-8" type="curve" smooth="yes"/>
      <point x="377" y="-8"/>
      <point x="467" y="73"/>
    </contour>
    <contour>
      <point x="990" y="181" type="curve"/>
      <point x="890" y="193" type="line"/>
      <point x="881" y="146"/>
      <point x="846" y="72"/>
      <point x="756" y="72" type="curve" smooth="yes"/>
      <point x="666" y="72"/>
      <point x="618" y="145"/>
      <point x="618" y="249" type="curve" smooth="yes"/>
      <point x="618" y="352"/>
      <point x="666" y="428"/>
      <point x="756" y="428" type="curve" smooth="yes"/>
      <point x="846" y="428"/>
      <point x="887" y="354"/>
      <point x="891" y="291" type="curve"/>
      <point x="991" y="304" type="line"/>
      <point x="975" y="420"/>
      <point x="896" y="508"/>
      <point x="756" y="508" type="curve" smooth="yes"/>
      <point x="616" y="508"/>
      <point x="518" y="410"/>
      <point x="518" y="249" type="curve" smooth="yes"/>
      <point x="518" y="103"/>
      <point x="613" y="-8"/>
      <point x="756" y="-8" type="curve" smooth="yes"/>
      <point x="880" y="-8"/>
      <point x="970" y="73"/>
    </contour>
  </outline>
</glyph>
<glyph name="c_d.liga" format="2">
  <advance width="1015"/>
  <outline>
    <contour>
      <point x="487" y="181" type="curve"/>
      <point x="387" y="193" type="line"/>
      <point x="378" y="146"/>
      <point x="343" y="72"/>
      <point x="253" y="72" type="curve" smooth="yes"/>
      <point x="163" y="72"/>
      <point x="115" y="145"/>
      <point x="115" y="249" type="curve" smooth="yes"/>
      <point x="115" y="352"/>
      <point x="163" y="428"/>
      <point x="253" y="428" type="curve" smooth="yes"/>
      <point x="343" y="428"/>
      <point x="384" y="354"/>
      <point x="388" y="291" type="curve"/>
      <point x="488" y="304" type="line"/>
      <point x="472" y="420"/>
      <point x="393" y="508"/>
      <point x="253" y="508" type="curve" smooth="yes"/>
      <point x="113" y="508"/>
      <point x="15" y="410"/>
      <point x="15" y="249" type="curve" smooth="yes"/>
      <point x="15" y="103"/>
      <point x="110" y="-8"/>
      <point x="253" y="-8" type="curve" smooth="yes"/>
      <point x="377" y="-8"/>
      <point x="467" y="73"/>
    </contour>
    <contour>
      <point x="980" y="800" type="line"/>
      <point x="880" y="800" type="line"/>
      <point x="880" y="0" type="line"/>
      <point x="980" y="0" type="line"/>
    </contour>
    <contour>
      <point x="726" y="-8" type="curve" smooth="yes"/>
      <point x="875" y="-8"/>
      <point x="898" y="104"/>
      <point x="898" y="250" type="curve" smooth="yes"/>
      <point x="898" y="411"/>
      <point x="856" y="508"/>
      <point x="726" y="508" type="curve" smooth="yes"/>
      <point x="586" y="508"/>
      <point x="518" y="400"/>
      <point x="518" y="250" type="curve" smooth="yes"/>
      <point x="518" y="92"/>
      <point x="586" y="-8"/>
    </contour>
    <contour>
      <point x="746" y="72" type="curve" smooth="yes"/>
      <point x="656" y="72"/>
      <point x="618" y="140"/>
      <point x="618" y="250" type="curve" smooth="yes"/>
      <point x="618" y="360"/>
      <point x="656" y="428"/>
      <point x="746" y="428" type="curve" smooth="yes"/>
      <point x="841" y="428"/>
      <point x="880" y="353"/>
      <point x="880" y="250" type="curve" smooth="yes"/>
      <point x="880" y="146"/>
      <point x="841" y="72"/>
    </contour>
  </outline>
</glyph>
<glyph name="d.fina.alt" format="2">
  <advance width="512"/>
  <outline>
    <contour>
      <point x="477" y="800" type="line"/>
      <point x="377" y="800" type="line"/>
      <point x="377" y="0" type="line"/>
      <point x="477" y="0" type="line"/>
    </contour>
    <contour>
      <point x="223" y="-8" type="curve" smooth="yes"/>
      <point x="372" y="-8"/>
      <point x="395" y="104"/>
      <point x="395" y="250" type="curve" smooth="yes"/>
      <point x="395" y="411"/>
      <point x="353" y="508"/>
      <point x="223" y="508" type="curve" smooth="yes"/>
      <point x="83" y="508"/>
      <point x="15" y="400"/>
      <point x="15" y="250" type="curve" smooth="yes"/>
      <point x="15" y="92"/>
      <point x="83" y="-8"/>
    </contour>
    <contour>
      <point x="243" y="72" type="curve" smooth="yes"/>
      <point x="153" y="72"/>
      <point x="115" y="140"/>
      <point x="115" y="250" type="curve" smooth="yes"/>
      <point x="115" y="360"/>
      <point x="153" y="428"/>
      <point x="243" y="428" type="curve" smooth="yes"/>
      <point x="338" y="428"/>
      <point x="377" y="353"/>
      <point x="377" y="250" type="curve" smooth="yes"/>
      <point x="377" y="146"/>
      <point x="338" y="72"/>
    </contour>
  </outline>
</glyph>
<glyph name="d_d.liga.alt1" format="2">
  <advance width="1024"/>
  <outline>
    <contour>
      <point x="477" y="800" type="line"/>
      <point x="377" y="800" type="line"/>
      <point x="377" y="0" type="line"/>
      <point x="477" y="0" type="line"/>
    </contour>
    <contour>
      <point x="223" y="-8" type="curve" smooth="yes"/>
      <point x="372" y="-8"/>
      <point x="395" y="104"/>
      <point x="395" y="250" type="curve" smooth="yes"/>
      <point x="395" y="411"/>
      <point x="353" y="508"/>
      <point x="223" y="508" type="curve" smooth="yes"/>
      <point x="83" y="508"/>
      <point x="15" y="400"/>
      <point x="15" y="250" type="curve" smooth="yes"/>
      <point x="15" y="92"/>
      <point x="83" y="-8"/>
    </contour>
    <contour>
      <point x="243" y="72" type="curve" smooth="yes"/>
      <point x="153" y="72"/>
      <point x="115" y="140"/>
      <point x="115" y="250" type="curve" smooth="yes"/>
      <point x="115" y="360"/>
      <point x="153" y="428"/>
      <point x="243" y="428" type="curve" smooth="yes"/>
      <point x="338" y="428"/>
      <point x="377" y="353"/>
      <point x="377" y="250" type="curve" smooth="yes"/>
      <point x="377" y="146"/>
      <point x="338" y="72"/>
    </contour>
    <contour>
      <point x="989" y="800" type="line"/>
      <point x="889" y="800" type="line"/>
      <point x="889" y="0" type="line"/>
      <point x="989" y="0" type="line"/>
    </contour>
    <contour>
      <point x="735" y="-8" type="curve" smooth="yes"/>
      <point x="884" y="-8"/>
      <point x="907" y="104"/>
      <point x="907" y="250" type="curve" smooth="yes"/>
      <point x="907" y="411"/>
      <point x="865" y="508"/>
      <point x="735" y="508" type="curve" smooth="yes"/>
      <point x="595" y="508"/>
      <point x="527" y="400"/>
      <point x="527" y="250" type="curve" smooth="yes"/>
      <point x="527" y="92"/>
      <point x="595" y="-8"/>
    </contour>
    <contour>
      <point x="755" y="72" type="curve" smooth="yes"/>
      <point x="665" y="72"/>
      <point x="627" y="140"/>
      <point x="627" y="250" type="curve" smooth="yes"/>
      <point x="627" y="360"/>
      <point x="665" y="428"/>
      <point x="755" y="428" type="curve" smooth="yes"/>
      <point x="850" y="428"/>
      <point x="889" y="353"/>
      <point x="889" y="250" type="curve" smooth="yes"/>
      <point x="889" y="146"/>
      <point x="850" y="72"/>
    </contour>
  </outline>
</glyph>
<glyph name="e.fina.alt" format="2">
  <advance width="499"/>
  <outline>
    <contour>
      <point x="480" y="170" type="curve"/>
      <point x="390" y="182" type="line"/>
      <point x="375" y="104"/>
      <point x="314" y="69"/>
      <point x="251" y="72" type="curve" smooth="yes"/>
      <point x="191" y="75"/>
      <point x="115" y="113"/>
      <point x="115" y="256" type="curve" smooth="yes"/>
      <point x="115" y="386"/>
      <point x="171" y="428"/>
      <point x="254" y="428" type="curve" smooth="yes"/>
      <point x="329" y="428"/>
      <point x="368" y="389"/>
      <point x="381" y="316" type="curve"/>
      <point x="94" y="316" type="line"/>
      <point x="94" y="236" type="line"/>
      <point x="480" y="236" type="line"/>
      <point x="484" y="259"/>
      <point x="484" y="280"/>
      <point x="483" y="295" type="curve" smooth="yes"/>
      <point x="475" y="420"/>
      <point x="380" y="508"/>
      <point x="254" y="508" type="curve" smooth="yes"/>
      <point x="112" y="508"/>
      <point x="15" y="417"/>
      <point x="15" y="256" type="curve" smooth="yes"/>
      <point x="15" y="110"/>
      <point x="108" y="-8"/>
      <point x="251" y="-8" type="curve" smooth="yes"/>
      <point x="367" y="-8"/>
      <point x="460" y="66"/>
    </contour>
  </outline>
</glyph>
<glyph name="e_d.liga" format="2">
  <advance width="1011"/>
  <outline>
    <contour>
      <point x="480" y="170" type="curve"/>
      <point x="390" y="182" type="line"/>
      <point x="375" y="104"/>
      <point x="314" y="69"/>
      <point x="251" y="72" type="curve" smooth="yes"/>
      <point x="191" y="75"/>
      <point x="115" y="113"/>
      <point x="115" y="256" type="curve" smooth="yes"/>
      <point x="115" y="386"/>
      <point x="171" y="428"/>
      <point x="254" y="428" type="curve" smooth="yes"/>
      <point x="329" y="428"/>
      <point x="368" y="389"/>
      <point x="381" y="316" type="curve"/>
      <point x="94" y="316" type="line"/>
      <point x="94" y="236" type="line"/>
      <point x="480" y="236" type="line"/>
      <point x="484" y="259"/>
      <point x="484" y="280"/>
      <point x="483" y="295" type="curve" smooth="yes"/>
      <point x="475" y="420"/>
      <point x="380" y="508"/>
      <point x="254" y="508" type="curve" smooth="yes"/>
      <point x="112" y="508"/>
      <point x="15" y="417"/>
      <point x="15" y="256" type="curve" smooth="yes"/>
      <point x="15" y="110"/>
      <point x="108" y="-8"/>
      <point x="251" y="-8" type="curve" smooth="yes"/>
      <point x="367" y="-8"/>
      <point x="460" y="66"/>
    </contour>
    <contour>
      <point x="976" y="800" type="line"/>
      <point x="876" y="800" type="line"/>
      <point x="876" y="0" type="line"/>
      <point x="976" y="0" type="line"/>
    </contour>
    <contour>
      <point x="722" y="-8" type="curve" smooth="yes"/>
      <point x="871" y="-8"/>
      <point x="894" y="104"/>
      <point x="894" y="250" type="curve" smooth="yes"/>
      <point x="894" y="411"/>
      <point x="852" y="508"/>
      <point x="722" y="508" type="curve" smooth="yes"/>
      <point x="582" y="508"/>
      <point x="514" y="400"/>
      <point x="514" y="250" type="curve" smooth="yes"/>
      <point x="514" y="92"/>
      <point x="582" y="-8"/>
    </contour>
    <contour>
      <point x="742" y="72" type="curve" smooth="yes"/>
      <point x="652" y="72"/>
      <point x="614" y="140"/>
      <point x="614" y="250" type="curve" smooth="yes"/>
      <point x="614" y="360"/>
      <point x="652" y="428"/>
      <point x="742" y="428" type="curve" smooth="yes"/>
      <point x="837" y="428"/>
      <point x="876" y="353"/>
      <point x="876" y="250" type="curve" smooth="yes"/>
      <point x="876" y="146"/>
      <point x="837" y="72"/>
    </contour>
  </outline>
</glyph>
<glyph name="e_e.liga" format="2">
  <advance width="998"/>
  <outline>
    <contour>
      <point x="480" y="170" type="curve"/>
      <point x="390" y="182" type="line"/>
      <point x="375" y="104"/>
      <point x="314" y="69"/>
      <point x="251" y="72" type="curve" smooth="yes"/>
      <point x="191" y="75"/>
      <point x="115" y="113"/>
      <point x="115" y="256" type="curve" smooth="yes"/>
      <point x="115" y="386"/>
      <point x="171" y="428"/>
      <point x="254" y="428" type="curve" smooth="yes"/>
      <point x="329" y="428"/>
      <point x="368" y="389"/>
      <point x="381" y="316" type="curve"/>
      <point x="94" y="316" type="line"/>
      <point x="94" y="236" type="line"/>
      <point x="480" y="236" type="line"/>
      <point x="484" y="259"/>
      <point x="484" y="280"/>
      <point x="483" y="295" type="curve" smooth="yes"/>
      <point x="475" y="420"/>
      <point x="380" y="508"/>
      <point x="254" y="508" type="curve" smooth="yes"/>
      <point x="112" y="508"/>
      <point x="15" y="417"/>
      <point x="15" y="256" type="curve" smooth="yes"/>
      <point x="15" y="110"/>
      <point x="108" y="-8"/>
      <point x="251" y="-8" type="curve" smooth="yes"/>
      <point x="367" y="-8"/>
      <point x="460" y="66"/>
    </contour>
    <contour>
      <point x="979" y="170" type="curve"/>
      <point x="889" y="182" type="line"/>
      <point x="874" y="104"/>
      <point x="813" y="69"/>
      <point x="750" y="72" type="curve" smooth="yes"/>
      <point x="690" y="75"/>
      <point x="614" y="113"/>
      <point x="614" y="256" type="curve" smooth="yes"/>
      <point x="614" y="386"/>
      <point x="670" y="428"/>
      <point x="753" y="428" type="curve" smooth="yes"/>
      <point x="828" y="428"/>
      <point x="867" y="389"/>
      <point x="880" y="316" type="curve"/>
      <point x="593" y="316" type="line"/>
      <point x="593" y="236" type="line"/>
      <point x="979" y="236" type="line"/>
      <point x="983" y="259"/>
      <point x="983" y="280"/>
      <point x="982" y="295" type="curve" smooth="yes"/>
      <point x="974" y="420"/>
      <point x="879" y="508"/>
      <point x="753" y="508" type="curve" smooth="yes"/>
      <point x="611" y="508"/>
      <point x="514" y="417"/>
      <point x="514" y="256" type="curve" smooth="yes"/>
      <point x="514" y="110"/>
      <point x="607" y="-8"/>
      <point x="750" y="-8" type="curve" smooth="yes"/>
      <point x="866" y="-8"/>
      <point x="959" y="66"/>
    </contour>
  </outline>
</glyph>
<glyph name="eight.alt1" format="2">
  <advance width="601"/>
  <outline>
    <contour>
      <point x="301" y="-13" type="curve" smooth="yes"/>
      <point x="491" y="-13"/>
      <point x="576" y="87"/>
      <point x="576" y="202" type="curve" smooth="yes"/>
      <point x="576" y="292"/>
      <point x="519" y="347"/>
      <point x="448" y="379" type="curve"/>
      <point x="499" y="413"/>
      <point x="538" y="463"/>
      <point x="538" y="524" type="curve" smooth="yes"/>
      <point x="538" y="629"/>
      <point x="441" y="708"/>
      <point x="301" y="708" type="curve" smooth="yes"/>
      <point x="161" y="708"/>
      <point x="63" y="629"/>
      <point x="63" y="524" type="curve" smooth="yes"/>
      <point x="63" y="463"/>
      <point x="102" y="413"/>
      <point x="154" y="379" type="curve"/>
      <point x="83" y="347"/>
      <point x="25" y="292"/>
      <point x="25" y="202" type="curve" smooth="yes"/>
      <point x="25" y="87"/>
      <point x="111" y="-13"/>
    </contour>
    <contour>
      <point x="301" y="77" type="curve" smooth="yes"/>
      <point x="201" y="77"/>
      <point x="130" y="107"/>
      <point x="130" y="202" type="curve" smooth="yes"/>
      <point x="130" y="297"/>
      <point x="201" y="330"/>
      <point x="301" y="330" type="curve" smooth="yes"/>
      <point x="401" y="330"/>
      <point x="471" y="297"/>
      <point x="471" y="202" type="curve" smooth="yes"/>
      <point x="471" y="107"/>
      <point x="401" y="77"/>
    </contour>
    <contour>
      <point x="301" y="420" type="curve" smooth="yes"/>
      <point x="211" y="420"/>
      <point x="163" y="459"/>
      <point x="163" y="519" type="curve" smooth="yes"/>
      <point x="163" y="579"/>
      <point x="211" y="618"/>
      <point x="301" y="618" type="curve" smooth="yes"/>
      <point x="391" y="618"/>
      <point x="438" y="579"/>
      <point x="438" y="519" type="curve" smooth="yes"/>
      <point x="438" y="459"/>
      <point x="391" y="420"/>
    </contour>
  </outline>
</glyph>
<glyph name="f_f.liga.alt1" format="2">
  <advance width="714"/>
  <outline>
    <contour>
      <point x="357" y="755" type="line"/>
      <point x="335" y="782"/>
      <point x="297" y="793"/>
      <point x="258" y="793" type="curve" smooth="yes"/>
      <point x="141" y="793"/>
      <point x="84" y="742"/>
      <point x="84" y="626" type="curve" smooth="yes"/>
      <point x="84" y="-1" type="line"/>
      <point x="184" y="-1" type="line"/>
      <point x="184" y="621" type="line"/>
      <point x="184" y="695"/>
      <point x="223" y="713"/>
      <point x="258" y="713" type="curve" smooth="yes"/>
      <point x="288" y="713"/>
      <point x="326" y="700"/>
      <point x="357" y="675" type="curve"/>
    </contour>
    <contour>
      <point x="0" y="416" type="line"/>
      <point x="350" y="416" type="line"/>
      <point x="350" y="496" type="line"/>
      <point x="0" y="496" type="line"/>
    </contour>
    <contour>
      <point x="714" y="755" type="line"/>
      <point x="692" y="782"/>
      <point x="654" y="793"/>
      <point x="615" y="793" type="curve" smooth="yes"/>
      <point x="498" y="793"/>
      <point x="441" y="742"/>
      <point x="441" y="626" type="curve" smooth="yes"/>
      <point x="441" y="-1" type="line"/>
      <point x="541" y="-1" type="line"/>
      <point x="541" y="621" type="line"/>
      <point x="541" y="695"/>
      <point x="580" y="713"/>
      <point x="615" y="713" type="curve" smooth="yes"/>
      <point x="645" y="713"/>
      <point x="683" y="700"/>
      <point x="714" y="675" type="curve"/>
    </contour>
    <contour>
      <point x="357" y="416" type="line"/>
      <point x="707" y="416" type="line"/>
      <point x="707" y="496" type="line"/>
      <point x="357" y="496" type="line"/>
    </contour>
  </outline>
</glyph>
<glyph name="f_f.liga.alt2" format="2">
  <advance width="707"/>
  <outline>
    <contour>
      <point x="357" y="756" type="line"/>
      <point x="335" y="783"/>
      <point x="297" y="794"/>
      <point x="258" y="794" type="curve" smooth="yes"/>
      <point x="141" y="794"/>
      <point x="84" y="743"/>
      <point x="84" y="627" type="curve" smooth="yes"/>
      <point x="84" y="0" type="line"/>
      <point x="184" y="0" type="line"/>
      <point x="184" y="622" type="line"/>
      <point x="184" y="696"/>
      <point x="223" y="714"/>
      <point x="258" y="714" type="curve" smooth="yes"/>
      <point x="288" y="714"/>
      <point x="326" y="701"/>
      <point x="357" y="676" type="curve"/>
    </contour>
    <contour>
      <point x="0" y="417" type="line"/>
      <point x="353" y="417" type="line"/>
      <point x="353" y="497" type="line"/>
      <point x="0" y="497" type="line"/>
    </contour>
    <contour>
      <point x="694" y="756" type="line"/>
      <point x="672" y="783"/>
      <point x="634" y="794"/>
      <point x="595" y="794" type="curve" smooth="yes"/>
      <point x="478" y="794"/>
      <point x="421" y="743"/>
      <point x="421" y="627" type="curve" smooth="yes"/>
      <point x="421" y="0" type="line"/>
      <point x="521" y="0" type="line"/>
      <point x="521" y="622" type="line"/>
      <point x="521" y="696"/>
      <point x="560" y="714"/>
      <point x="595" y="714" type="curve" smooth="yes"/>
      <point x="625" y="714"/>
      <point x="663" y="701"/>
      <point x="694" y="676" type="curve"/>
    </contour>
    <contour>
      <point x="353" y="417" type="line"/>
      <point x="707" y="417" type="line"/>
      <point x="707" y="497" type="line"/>
      <point x="353" y="497" type="line"/>
    </contour>
  </outline>
</glyph>
<glyph name="f_f.liga.alt3" format="2">
  <advance width="657"/>
  <outline>
    <contour>
      <point x="357" y="755" type="line"/>
      <point x="335" y="782"/>
      <point x="297" y="793"/>
      <point x="258" y="793" type="curve" smooth="yes"/>
      <point x="141" y="793"/>
      <point x="84" y="742"/>
      <point x="84" y="626" type="curve" smooth="yes"/>
      <point x="84" y="-1" type="line"/>
      <point x="184" y="-1" type="line"/>
      <point x="184" y="621" type="line"/>
      <point x="184" y="695"/>
      <point x="223" y="713"/>
      <point x="258" y="713" type="curve" smooth="yes"/>
      <point x="288" y="713"/>
      <point x="326" y="700"/>
      <point x="357" y="675" type="curve"/>
    </contour>
    <contour>
      <point x="0" y="416" type="line"/>
      <point x="350" y="416" type="line"/>
      <point x="350" y="496" type="line"/>
      <point x="0" y="496" type="line"/>
    </contour>
    <contour>
      <point x="657" y="755" type="line"/>
      <point x="635" y="782"/>
      <point x="597" y="793"/>
      <point x="558" y="793" type="curve" smooth="yes"/>
      <point x="441" y="793"/>
      <point x="384" y="742"/>
      <point x="384" y="626" type="curve" smooth="yes"/>
      <point x="384" y="-1" type="line"/>
      <point x="484" y="-1" type="line"/>
      <point x="484" y="621" type="line"/>
      <point x="484" y="695"/>
      <point x="523" y="713"/>
      <point x="558" y="713" type="curve" smooth="yes"/>
      <point x="588" y="713"/>
      <point x="626" y="700"/>
      <point x="657" y="675" type="curve"/>
    </contour>
    <contour>
      <point x="300" y="416" type="line"/>
      <point x="650" y="416" type="line"/>
      <point x="650" y="496" type="line"/>
      <point x="300" y="496" type="line"/>
    </contour>
  </outline>
</glyph>
<glyph name="five.alt1" format="2">
  <advance width="591"/>
  <outline>
    <contour>
      <point x="101" y="700" type="line"/>
      <point x="60" y="415" type="line"/>
      <point x="141" y="343" type="line"/>
      <point x="179" y="610" type="line"/>
      <point x="517" y="610" type="line"/>
      <point x="517" y="700" type="line"/>
    </contour>
    <contour>
      <point x="291" y="464" type="curve"/>
      <point x="233" y="464"/>
      <point x="181" y="447"/>
      <point x="123" y="404" type="curve"/>
      <point x="141" y="343" type="line"/>
      <point x="191" y="373"/>
      <point x="241" y="374"/>
      <point x="291" y="374" type="curve" smooth="yes"/>
      <point x="431" y="374"/>
      <point x="461" y="302"/>
      <point x="461" y="207" type="curve" smooth="yes"/>
      <point x="461" y="112"/>
      <point x="391" y="82"/>
      <point x="291" y="82" type="curve" smooth="yes"/>
      <point x="191" y="82"/>
      <point x="130" y="122"/>
      <point x="130" y="217" type="curve"/>
      <point x="25" y="227" type="line"/>
      <point x="25" y="112"/>
      <point x="101" y="-8"/>
      <point x="291" y="-8" type="curve" smooth="yes"/>
      <point x="481" y="-8"/>
      <point x="566" y="92"/>
      <point x="566" y="207" type="curve" smooth="yes"/>
      <point x="566" y="342"/>
      <point x="502" y="464"/>
    </contour>
  </outline>
</glyph>
<glyph name="four.alt1" format="2">
  <advance width="610"/>
  <outline>
    <contour>
      <point x="25" y="266" type="line"/>
      <point x="25" y="176" type="line"/>
      <point x="368" y="176" type="line"/>
      <point x="368" y="0" type="line"/>
      <point x="473" y="0" type="line"/>
      <point x="473" y="176" type="line"/>
      <point x="585" y="176" type="line"/>
      <point x="585" y="266" type="line"/>
      <point x="473" y="266" type="line"/>
      <point x="473" y="700" type="line"/>
      <point x="297" y="700" type="line"/>
    </contour>
    <contour>
      <point x="141" y="266" type="line"/>
      <point x="368" y="624" type="line"/>
      <point x="368" y="266" type="line"/>
    </contour>
  </outline>
</glyph>
<glyph name="g_g.liga.alt2" format="2">
  <advance width="1019"/>
  <outline>
    <contour>
      <point x="477" y="494" type="line"/>
      <point x="377" y="494" type="line"/>
      <point x="377" y="-6" type="line"/>
      <point x="477" y="-6" type="line"/>
    </contour>
    <contour>
      <point x="223" y="-14" type="curve" smooth="yes"/>
      <point x="363" y="-14"/>
      <point x="395" y="82"/>
      <point x="395" y="244" type="curve" smooth="yes"/>
      <point x="395" y="405"/>
      <point x="353" y="502"/>
      <point x="223" y="502" type="curve" smooth="yes"/>
      <point x="83" y="502"/>
      <point x="15" y="392"/>
      <point x="15" y="242" type="curve" smooth="yes"/>
      <point x="15" y="84"/>
      <point x="83" y="-14"/>
    </contour>
    <contour>
      <point x="243" y="66" type="curve" smooth="yes"/>
      <point x="153" y="66"/>
      <point x="115" y="132"/>
      <point x="115" y="242" type="curve" smooth="yes"/>
      <point x="115" y="352"/>
      <point x="153" y="422"/>
      <point x="243" y="422" type="curve" smooth="yes"/>
      <point x="338" y="422"/>
      <point x="377" y="347"/>
      <point x="377" y="244" type="curve" smooth="yes"/>
      <point x="377" y="140"/>
      <point x="338" y="66"/>
    </contour>
    <contour>
      <point x="477" y="-6" type="curve"/>
      <point x="377" y="-6" type="line"/>
      <point x="377" y="-88"/>
      <point x="326" y="-134"/>
      <point x="241" y="-134" type="curve" smooth="yes"/>
      <point x="171" y="-134"/>
      <point x="134" y="-103"/>
      <point x="124" y="-60" type="curve"/>
      <point x="32" y="-72" type="line"/>
      <point x="52" y="-176"/>
      <point x="132" y="-214"/>
      <point x="241" y="-214" type="curve" smooth="yes"/>
      <point x="391" y="-214"/>
      <point x="477" y="-142"/>
    </contour>
    <contour>
      <point x="984" y="494" type="line"/>
      <point x="884" y="494" type="line"/>
      <point x="884" y="-6" type="line"/>
      <point x="984" y="-6" type="line"/>
    </contour>
    <contour>
      <point x="730" y="-14" type="curve" smooth="yes"/>
      <point x="870" y="-14"/>
      <point x="902" y="82"/>
      <point x="902" y="244" type="curve" smooth="yes"/>
      <point x="902" y="405"/>
      <point x="860" y="502"/>
      <point x="730" y="502" type="curve" smooth="yes"/>
      <point x="590" y="502"/>
      <point x="522" y="392"/>
      <point x="522" y="242" type="curve" smooth="yes"/>
      <point x="522" y="84"/>
      <point x="590" y="-14"/>
    </contour>
    <contour>
      <point x="750" y="66" type="curve" smooth="yes"/>
      <point x="660" y="66"/>
      <point x="622" y="132"/>
      <point x="622" y="242" type="curve" smooth="yes"/>
      <point x="622" y="352"/>
      <point x="660" y="422"/>
      <point x="750" y="422" type="curve" smooth="yes"/>
      <point x="845" y="422"/>
      <point x="884" y="347"/>
      <point x="884" y="244" type="curve" smooth="yes"/>
      <point x="884" y="140"/>
      <point x="845" y="66"/>
    </contour>
    <contour>
      <point x="984" y="-6" type="curve"/>
      <point x="884" y="-6" type="line"/>
      <point x="884" y="-88"/>
      <point x="833" y="-134"/>
      <point x="748" y="-134" type="curve" smooth="yes"/>
      <point x="678" y="-134"/>
      <point x="641" y="-103"/>
      <point x="631" y="-60" type="curve"/>
      <point x="539" y="-72" type="line"/>
      <point x="559" y="-176"/>
      <point x="639" y="-214"/>
      <point x="748" y="-214" type="curve" smooth="yes"/>
      <point x="898" y="-214"/>
      <point x="984" y="-142"/>
    </contour>
  </outline>
</glyph>
<glyph name="g_g.liga" format="2">
  <advance width="1019"/>
  <outline>
    <contour>
      <point x="477" y="500" type="line"/>
      <point x="377" y="500" type="line"/>
      <point x="377" y="0" type="line"/>
      <point x="477" y="0" type="line"/>
    </contour>
    <contour>
      <point x="223" y="-8" type="curve" smooth="yes"/>
      <point x="363" y="-8"/>
      <point x="395" y="88"/>
      <point x="395" y="250" type="curve" smooth="yes"/>
      <point x="395" y="411"/>
      <point x="353" y="508"/>
      <point x="223" y="508" type="curve" smooth="yes"/>
      <point x="83" y="508"/>
      <point x="15" y="398"/>
      <point x="15" y="248" type="curve" smooth="yes"/>
      <point x="15" y="90"/>
      <point x="83" y="-8"/>
    </contour>
    <contour>
      <point x="243" y="72" type="curve" smooth="yes"/>
      <point x="153" y="72"/>
      <point x="115" y="138"/>
      <point x="115" y="248" type="curve" smooth="yes"/>
      <point x="115" y="358"/>
      <point x="153" y="428"/>
      <point x="243" y="428" type="curve" smooth="yes"/>
      <point x="338" y="428"/>
      <point x="377" y="353"/>
      <point x="377" y="250" type="curve" smooth="yes"/>
      <point x="377" y="146"/>
      <point x="338" y="72"/>
    </contour>
    <contour>
      <point x="477" y="0" type="curve"/>
      <point x="377" y="0" type="line"/>
      <point x="377" y="-82"/>
      <point x="326" y="-128"/>
      <point x="241" y="-128" type="curve" smooth="yes"/>
      <point x="171" y="-128"/>
      <point x="134" y="-97"/>
      <point x="124" y="-54" type="curve"/>
      <point x="32" y="-66" type="line"/>
      <point x="52" y="-170"/>
      <point x="132" y="-208"/>
      <point x="241" y="-208" type="curve" smooth="yes"/>
      <point x="391" y="-208"/>
      <point x="477" y="-136"/>
    </contour>
    <contour>
      <point x="984" y="500" type="line"/>
      <point x="884" y="500" type="line"/>
      <point x="884" y="0" type="line"/>
      <point x="984" y="0" type="line"/>
    </contour>
    <contour>
      <point x="730" y="-8" type="curve" smooth="yes"/>
      <point x="870" y="-8"/>
      <point x="902" y="88"/>
      <point x="902" y="250" type="curve" smooth="yes"/>
      <point x="902" y="411"/>
      <point x="860" y="508"/>
      <point x="730" y="508" type="curve" smooth="yes"/>
      <point x="590" y="508"/>
      <point x="522" y="398"/>
      <point x="522" y="248" type="curve" smooth="yes"/>
      <point x="522" y="90"/>
      <point x="590" y="-8"/>
    </contour>
    <contour>
      <point x="750" y="72" type="curve" smooth="yes"/>
      <point x="660" y="72"/>
      <point x="622" y="138"/>
      <point x="622" y="248" type="curve" smooth="yes"/>
      <point x="622" y="358"/>
      <point x="660" y="428"/>
      <point x="750" y="428" type="curve" smooth="yes"/>
      <point x="845" y="428"/>
      <point x="884" y="353"/>
      <point x="884" y="250" type="curve" smooth="yes"/>
      <point x="884" y="146"/>
      <point x="845" y="72"/>
    </contour>
    <contour>
      <point x="984" y="0" type="curve"/>
      <point x="884" y="0" type="line"/>
      <point x="884" y="-82"/>
      <point x="833" y="-128"/>
      <point x="748" y="-128" type="curve" smooth="yes"/>
      <point x="678" y="-128"/>
      <point x="641" y="-97"/>
      <point x="631" y="-54" type="curve"/>
      <point x="539" y="-66" type="line"/>
      <point x="559" y="-170"/>
      <point x="639" y="-208"/>
      <point x="748" y="-208" type="curve" smooth="yes"/>
      <point x="898" y="-208"/>
      <point x="984" y="-136"/>
    </contour>
  </outline>
</glyph>
<glyph name="i_i.liga.alt2" format="2">
  <advance width="380"/>
  <outline>
    <contour>
      <point x="44" y="500" type="line"/>
      <point x="44" y="0" type="line"/>
      <point x="144" y="0" type="line"/>
      <point x="144" y="500" type="line"/>
    </contour>
    <contour>
      <point x="96" y="552" type="curve" smooth="yes"/>
      <point x="133" y="552"/>
      <point x="155" y="578"/>
      <point x="155" y="615" type="curve" smooth="yes"/>
      <point x="155" y="652"/>
      <point x="133" y="677"/>
      <point x="96" y="677" type="curve" smooth="yes"/>
      <point x="59" y="677"/>
      <point x="35" y="652"/>
      <point x="35" y="615" type="curve" smooth="yes"/>
      <point x="35" y="578"/>
      <point x="59" y="552"/>
    </contour>
    <contour>
      <point x="234" y="500" type="line"/>
      <point x="234" y="0" type="line"/>
      <point x="334" y="0" type="line"/>
      <point x="334" y="500" type="line"/>
    </contour>
    <contour>
      <point x="286" y="552" type="curve" smooth="yes"/>
      <point x="323" y="552"/>
      <point x="345" y="578"/>
      <point x="345" y="615" type="curve" smooth="yes"/>
      <point x="345" y="652"/>
      <point x="323" y="677"/>
      <point x="286" y="677" type="curve" smooth="yes"/>
      <point x="249" y="677"/>
      <point x="225" y="652"/>
      <point x="225" y="615" type="curve" smooth="yes"/>
      <point x="225" y="578"/>
      <point x="249" y="552"/>
    </contour>
  </outline>
</glyph>
<glyph name="j.fina.alt" format="2">
  <advance width="231"/>
  <outline>
    <contour>
      <point x="86" y="500" type="line"/>
      <point x="86" y="0" type="line" smooth="yes"/>
      <point x="86" y="-66"/>
      <point x="90" y="-123"/>
      <point x="29" y="-123" type="curve" smooth="yes"/>
      <point x="15" y="-123"/>
      <point x="-10" y="-120"/>
      <point x="-35" y="-103" type="curve"/>
      <point x="-35" y="-183" type="line"/>
      <point x="-15" y="-200"/>
      <point x="29" y="-208"/>
      <point x="61" y="-208" type="curve" smooth="yes"/>
      <point x="182" y="-208"/>
      <point x="186" y="-95"/>
      <point x="186" y="0" type="curve" smooth="yes"/>
      <point x="186" y="500" type="line"/>
    </contour>
    <contour>
      <point x="138" y="552" type="curve" smooth="yes"/>
      <point x="172" y="552"/>
      <point x="196" y="577"/>
      <point x="196" y="615" type="curve" smooth="yes"/>
      <point x="196" y="652"/>
      <point x="174" y="677"/>
      <point x="138" y="677" type="curve" smooth="yes"/>
      <point x="102" y="677"/>
      <point x="77" y="653"/>
      <point x="77" y="615" type="curve" smooth="yes"/>
      <point x="77" y="577"/>
      <point x="100" y="552"/>
    </contour>
  </outline>
</glyph>
<glyph name="j_j.liga.alt2" format="2">
  <advance width="462"/>
  <outline>
    <contour>
      <point x="86" y="494" type="line"/>
      <point x="86" y="-6" type="line" smooth="yes"/>
      <point x="86" y="-72"/>
      <point x="90" y="-129"/>
      <point x="29" y="-129" type="curve" smooth="yes"/>
      <point x="15" y="-129"/>
      <point x="-10" y="-126"/>
      <point x="-35" y="-109" type="curve"/>
      <point x="-35" y="-189" type="line"/>
      <point x="-15" y="-206"/>
      <point x="29" y="-214"/>
      <point x="61" y="-214" type="curve" smooth="yes"/>
      <point x="182" y="-214"/>
      <point x="186" y="-101"/>
      <point x="186" y="-6" type="curve" smooth="yes"/>
      <point x="186" y="494" type="line"/>
    </contour>
    <contour>
      <point x="138" y="546" type="curve" smooth="yes"/>
      <point x="172" y="546"/>
      <point x="196" y="571"/>
      <point x="196" y="609" type="curve" smooth="yes"/>
      <point x="196" y="646"/>
      <point x="174" y="671"/>
      <point x="138" y="671" type="curve" smooth="yes"/>
      <point x="102" y="671"/>
      <point x="77" y="647"/>
      <point x="77" y="609" type="curve" smooth="yes"/>
      <point x="77" y="571"/>
      <point x="100" y="546"/>
    </contour>
    <contour>
      <point x="317" y="494" type="line"/>
      <point x="317" y="-6" type="line" smooth="yes"/>
      <point x="317" y="-72"/>
      <point x="321" y="-129"/>
      <point x="260" y="-129" type="curve" smooth="yes"/>
      <point x="246" y="-129"/>
      <point x="221" y="-126"/>
      <point x="196" y="-109" type="curve"/>
      <point x="196" y="-189" type="line"/>
      <point x="216" y="-206"/>
      <point x="260" y="-214"/>
      <point x="292" y="-214" type="curve" smooth="yes"/>
      <point x="413" y="-214"/>
      <point x="417" y="-101"/>
      <point x="417" y="-6" type="curve" smooth="yes"/>
      <point x="417" y="494" type="line"/>
    </contour>
    <contour>
      <point x="369" y="546" type="curve" smooth="yes"/>
      <point x="403" y="546"/>
      <point x="427" y="571"/>
      <point x="427" y="609" type="curve" smooth="yes"/>
      <point x="427" y="646"/>
      <point x="405" y="671"/>
      <point x="369" y="671" type="curve" smooth="yes"/>
      <point x="333" y="671"/>
      <point x="308" y="647"/>
      <point x="308" y="609" type="curve" smooth="yes"/>
      <point x="308" y="571"/>
      <point x="331" y="546"/>
    </contour>
  </outline>
</glyph>
<glyph name="j_j.liga" format="2">
  <advance width="462"/>
  <outline>
    <contour>
      <point x="86" y="500" type="line"/>
      <point x="86" y="0" type="line" smooth="yes"/>
      <point x="86" y="-66"/>
      <point x="90" y="-123"/>
      <point x="29" y="-123" type="curve" smooth="yes"/>
      <point x="15" y="-123"/>
      <point x="-10" y="-120"/>
      <point x="-35" y="-103" type="curve"/>
      <point x="-35" y="-183" type="line"/>
      <point x="-15" y="-200"/>
      <point x="29" y="-208"/>
      <point x="61" y="-208" type="curve" smooth="yes"/>
      <point x="182" y="-208"/>
      <point x="186" y="-95"/>
      <point x="186" y="0" type="curve" smooth="yes"/>
      <point x="186" y="500" type="line"/>
    </contour>
    <contour>
      <point x="138" y="552" type="curve" smooth="yes"/>
      <point x="172" y="552"/>
      <point x="196" y="577"/>
      <point x="196" y="615" type="curve" smooth="yes"/>
      <point x="196" y="652"/>
      <point x="174" y="677"/>
      <point x="138" y="677" type="curve" smooth="yes"/>
      <point x="102" y="677"/>
      <point x="77" y="653"/>
      <point x="77" y="615" type="curve" smooth="yes"/>
      <point x="77" y="577"/>
      <point x="100" y="552"/>
    </contour>
    <contour>
      <point x="317" y="500" type="line"/>
      <point x="317" y="0" type="line" smooth="yes"/>
      <point x="317" y="-66"/>
      <point x="321" y="-123"/>
      <point x="260" y="-123" type="curve" smooth="yes"/>
      <point x="246" y="-123"/>
      <point x="221" y="-120"/>
      <point x="196" y="-103" type="curve"/>
      <point x="196" y="-183" type="line"/>
      <point x="216" y="-200"/>
      <point x="260" y="-208"/>
      <point x="292" y="-208" type="curve" smooth="yes"/>
      <point x="413" y="-208"/>
      <point x="417" y="-95"/>
      <point x="417" y="0" type="curve" smooth="yes"/>
      <point x="417" y="500" type="line"/>
    </contour>
    <contour>
      <point x="369" y="552" type="curve" smooth="yes"/>
      <point x="403" y="552"/>
      <point x="427" y="577"/>
      <point x="427" y="615" type="curve" smooth="yes"/>
      <point x="427" y="652"/>
      <point x="405" y="677"/>
      <point x="369" y="677" type="curve" smooth="yes"/>
      <point x="333" y="677"/>
      <point x="308" y="653"/>
      <point x="308" y="615" type="curve" smooth="yes"/>
      <point x="308" y="577"/>
      <point x="331" y="552"/>
    </contour>
  </outline>
</glyph>
<glyph name="k_k.liga" format="2">
  <advance width="830"/>
  <outline>
    <contour>
      <point x="118" y="270" type="line"/>
      <point x="311" y="0" type="line"/>
      <point x="414" y="0" type="line"/>
      <point x="225" y="270" type="line"/>
      <point x="415" y="499" type="line"/>
      <point x="309" y="499" type="line"/>
    </contour>
    <contour>
      <point x="35" y="800" type="line"/>
      <point x="35" y="0" type="line"/>
      <point x="135" y="0" type="line"/>
      <point x="135" y="800" type="line"/>
    </contour>
    <contour>
      <point x="533" y="270" type="line"/>
      <point x="726" y="0" type="line"/>
      <point x="829" y="0" type="line"/>
      <point x="640" y="270" type="line"/>
      <point x="830" y="499" type="line"/>
      <point x="724" y="499" type="line"/>
    </contour>
    <contour>
      <point x="450" y="800" type="line"/>
      <point x="450" y="0" type="line"/>
      <point x="550" y="0" type="line"/>
      <point x="550" y="800" type="line"/>
    </contour>
  </outline>
</glyph>
<glyph name="l_l.liga.alt1" format="2">
  <advance width="340"/>
  <outline>
    <contour>
      <point x="35" y="800" type="line"/>
      <point x="35" y="0" type="line"/>
      <point x="135" y="0" type="line"/>
      <point x="135" y="800" type="line"/>
    </contour>
    <contour>
      <point x="205" y="800" type="line"/>
      <point x="205" y="0" type="line"/>
      <point x="305" y="0" type="line"/>
      <point x="305" y="800" type="line"/>
    </contour>
  </outline>
</glyph>
<glyph name="l_l.liga.alt3" format="2">
  <advance width="340"/>
  <outline>
    <contour>
      <point x="35" y="800" type="line"/>
      <point x="35" y="0" type="line"/>
      <point x="135" y="0" type="line"/>
      <point x="135" y="800" type="line"/>
    </contour>
    <contour>
      <point x="205" y="800" type="line"/>
      <point x="205" y="0" type="line"/>
      <point x="305" y="0" type="line"/>
      <point x="305" y="800" type="line"/>
    </contour>
  </outline>
</glyph>
<glyph name="m.fina" format="2">
  <advance width="700"/>
  <outline>
    <contour>
      <point x="35" y="500" type="line"/>
      <point x="35" y="0" type="line"/>
      <point x="135" y="0" type="line"/>
      <point x="135" y="399" type="line"/>
      <point x="135" y="500" type="line"/>
    </contour>
    <contour>
      <point x="302" y="336" type="curve"/>
      <point x="302" y="0" type="line"/>
      <point x="402" y="0" type="line"/>
      <point x="402" y="336" type="line" smooth="yes"/>
      <point x="402" y="432"/>
      <point x="358" y="508"/>
      <point x="262" y="508" type="curve" smooth="yes"/>
      <point x="167" y="508"/>
      <point x="117" y="433"/>
      <point x="117" y="280" type="curve"/>
      <point x="135" y="280" type="line"/>
      <point x="135" y="349"/>
      <point x="145" y="428"/>
      <point x="225" y="428" type="curve" smooth="yes"/>
      <point x="282" y="428"/>
      <point x="302" y="388"/>
    </contour>
    <contour>
      <point x="565" y="336" type="curve"/>
      <point x="565" y="0" type="line"/>
      <point x="665" y="0" type="line"/>
      <point x="665" y="336" type="line" smooth="yes"/>
      <point x="665" y="432"/>
      <point x="627" y="508"/>
      <point x="531" y="508" type="curve" smooth="yes"/>
      <point x="436" y="508"/>
      <point x="384" y="433"/>
      <point x="384" y="280" type="curve"/>
      <point x="402" y="280" type="line"/>
      <point x="402" y="349"/>
      <point x="408" y="428"/>
      <point x="488" y="428" type="curve" smooth="yes"/>
      <point x="545" y="428"/>
      <point x="565" y="388"/>
    </contour>
  </outline>
</glyph>
<glyph name="m_m.liga.alt2" format="2">
  <advance width="1390"/>
  <outline>
    <contour>
      <point x="35" y="500" type="line"/>
      <point x="35" y="0" type="line"/>
      <point x="135" y="0" type="line"/>
      <point x="135" y="399" type="line"/>
      <point x="135" y="500" type="line"/>
    </contour>
    <contour>
      <point x="302" y="336" type="curve"/>
      <point x="302" y="0" type="line"/>
      <point x="402" y="0" type="line"/>
      <point x="402" y="336" type="line" smooth="yes"/>
      <point x="402" y="432"/>
      <point x="358" y="508"/>
      <point x="262" y="508" type="curve" smooth="yes"/>
      <point x="167" y="508"/>
      <point x="117" y="433"/>
      <point x="117" y="280" type="curve"/>
      <point x="135" y="280" type="line"/>
      <point x="135" y="349"/>
      <point x="145" y="428"/>
      <point x="225" y="428" type="curve" smooth="yes"/>
      <point x="282" y="428"/>
      <point x="302" y="388"/>
    </contour>
    <contour>
      <point x="565" y="336" type="curve"/>
      <point x="565" y="0" type="line"/>
      <point x="665" y="0" type="line"/>
      <point x="665" y="336" type="line" smooth="yes"/>
      <point x="665" y="432"/>
      <point x="627" y="508"/>
      <point x="531" y="508" type="curve" smooth="yes"/>
      <point x="436" y="508"/>
      <point x="384" y="433"/>
      <point x="384" y="280" type="curve"/>
      <point x="402" y="280" type="line"/>
      <point x="402" y="349"/>
      <point x="408" y="428"/>
      <point x="488" y="428" type="curve" smooth="yes"/>
      <point x="545" y="428"/>
      <point x="565" y="388"/>
    </contour>
    <contour>
      <point x="725" y="500" type="line"/>
      <point x="725" y="0" type="line"/>
      <point x="825" y="0" type="line"/>
      <point x="825" y="399" type="line"/>
      <point x="825" y="500" type="line"/>
    </contour>
    <contour>
      <point x="992" y="336" type="curve"/>
      <point x="992" y="0" type="line"/>
      <point x="1092" y="0" type="line"/>
      <point x="1092" y="336" type="line" smooth="yes"/>
      <point x="1092" y="432"/>
      <point x="1048" y="508"/>
      <point x="952" y="508" type="curve" smooth="yes"/>
      <point x="857" y="508"/>
      <point x="807" y="433"/>
      <point x="807" y="280" type="curve"/>
      <point x="825" y="280" type="line"/>
      <point x="825" y="349"/>
      <point x="835" y="428"/>
      <point x="915" y="428" type="curve" smooth="yes"/>
      <point x="972" y="428"/>
      <point x="992" y="388"/>
    </contour>
    <contour>
      <point x="1255" y="336" type="curve"/>
      <point x="1255" y="0" type="line"/>
      <point x="1355" y="0" type="line"/>
      <point x="1355" y="336" type="line" smooth="yes"/>
      <point x="1355" y="432"/>
      <point x="1317" y="508"/>
      <point x="1221" y="508" type="curve" smooth="yes"/>
      <point x="1126" y="508"/>
      <point x="1074" y="433"/>
      <point x="1074" y="280" type="curve"/>
      <point x="1092" y="280" type="line"/>
      <point x="1092" y="349"/>
      <point x="1098" y="428"/>
      <point x="1178" y="428" type="curve" smooth="yes"/>
      <point x="1235" y="428"/>
      <point x="1255" y="388"/>
    </contour>
  </outline>
</glyph>
<glyph name="n.fina.alt" format="2">
  <advance width="494"/>
  <outline>
    <contour>
      <point x="35" y="500" type="line"/>
      <point x="35" y="0" type="line"/>
      <point x="135" y="0" type="line"/>
      <point x="135" y="399" type="line"/>
      <point x="135" y="500" type="line"/>
    </contour>
    <contour>
      <point x="359" y="313" type="curve"/>
      <point x="359" y="0" type="line"/>
      <point x="459" y="0" type="line"/>
      <point x="459" y="313" type="line" smooth="yes"/>
      <point x="459" y="409"/>
      <point x="429" y="508"/>
      <point x="289" y="508" type="curve" smooth="yes"/>
      <point x="151" y="508"/>
      <point x="117" y="411"/>
      <point x="117" y="250" type="curve"/>
      <point x="135" y="250" type="line"/>
      <point x="135" y="374"/>
      <point x="185" y="428"/>
      <point x="255" y="428" type="curve" smooth="yes"/>
      <point x="328" y="428"/>
      <point x="359" y="369"/>
    </contour>
  </outline>
</glyph>
<glyph name="n_n.liga.alt2" format="2">
  <advance width="978"/>
  <outline>
    <contour>
      <point x="35" y="500" type="line"/>
      <point x="35" y="0" type="line"/>
      <point x="135" y="0" type="line"/>
      <point x="135" y="399" type="line"/>
      <point x="135" y="500" type="line"/>
    </contour>
    <contour>
      <point x="359" y="313" type="curve"/>
      <point x="359" y="0" type="line"/>
      <point x="459" y="0" type="line"/>
      <point x="459" y="313" type="line" smooth="yes"/>
      <point x="459" y="409"/>
      <point x="429" y="508"/>
      <point x="289" y="508" type="curve" smooth="yes"/>
      <point x="151" y="508"/>
      <point x="117" y="411"/>
      <point x="117" y="250" type="curve"/>
      <point x="135" y="250" type="line"/>
      <point x="135" y="374"/>
      <point x="185" y="428"/>
      <point x="255" y="428" type="curve" smooth="yes"/>
      <point x="328" y="428"/>
      <point x="359" y="369"/>
    </contour>
    <contour>
      <point x="519" y="500" type="line"/>
      <point x="519" y="0" type="line"/>
      <point x="619" y="0" type="line"/>
      <point x="619" y="399" type="line"/>
      <point x="619" y="500" type="line"/>
    </contour>
    <contour>
      <point x="843" y="313" type="curve"/>
      <point x="843" y="0" type="line"/>
      <point x="943" y="0" type="line"/>
      <point x="943" y="313" type="line" smooth="yes"/>
      <point x="943" y="409"/>
      <point x="913" y="508"/>
      <point x="773" y="508" type="curve" smooth="yes"/>
      <point x="635" y="508"/>
      <point x="601" y="411"/>
      <point x="601" y="250" type="curve"/>
      <point x="619" y="250" type="line"/>
      <point x="619" y="374"/>
      <point x="669" y="428"/>
      <point x="739" y="428" type="curve" smooth="yes"/>
      <point x="812" y="428"/>
      <point x="843" y="369"/>
    </contour>
  </outline>
</glyph>
<glyph name="n_u.liga.alt2" format="2">
  <advance width="968"/>
  <outline>
    <contour>
      <point x="35" y="500" type="line"/>
      <point x="35" y="0" type="line"/>
      <point x="135" y="0" type="line"/>
      <point x="135" y="399" type="line"/>
      <point x="135" y="500" type="line"/>
    </contour>
    <contour>
      <point x="359" y="313" type="curve"/>
      <point x="359" y="0" type="line"/>
      <point x="459" y="0" type="line"/>
      <point x="459" y="313" type="line" smooth="yes"/>
      <point x="459" y="409"/>
      <point x="429" y="508"/>
      <point x="289" y="508" type="curve" smooth="yes"/>
      <point x="151" y="508"/>
      <point x="117" y="411"/>
      <point x="117" y="250" type="curve"/>
      <point x="135" y="250" type="line"/>
      <point x="135" y="374"/>
      <point x="185" y="428"/>
      <point x="255" y="428" type="curve" smooth="yes"/>
      <point x="328" y="428"/>
      <point x="359" y="369"/>
    </contour>
    <contour>
      <point x="933" y="0" type="line"/>
      <point x="933" y="500" type="line"/>
      <point x="833" y="500" type="line"/>
      <point x="833" y="101" type="line"/>
      <point x="833" y="0" type="line"/>
    </contour>
    <contour>
      <point x="619" y="187" type="curve"/>
      <point x="619" y="500" type="line"/>
      <point x="519" y="500" type="line"/>
      <point x="519" y="187" type="line" smooth="yes"/>
      <point x="519" y="91"/>
      <point x="549" y="-8"/>
      <point x="689" y="-8" type="curve" smooth="yes"/>
      <point x="827" y="-8"/>
      <point x="851" y="89"/>
      <point x="851" y="250" type="curve"/>
      <point x="833" y="250" type="line"/>
      <point x="833" y="126"/>
      <point x="792" y="72"/>
      <point x="722" y="72" type="curve" smooth="yes"/>
      <point x="649" y="72"/>
      <point x="619" y="131"/>
    </contour>
  </outline>
</glyph>
<glyph name="nine.alt1" format="2">
  <advance width="601"/>
  <outline>
    <contour>
      <point x="133" y="195" type="curve"/>
      <point x="28" y="195" type="line"/>
      <point x="28" y="125"/>
      <point x="101" y="-8"/>
      <point x="291" y="-8" type="curve" smooth="yes"/>
      <point x="481" y="-8"/>
      <point x="576" y="135"/>
      <point x="576" y="350" type="curve" smooth="yes"/>
      <point x="576" y="565"/>
      <point x="486" y="708"/>
      <point x="291" y="708" type="curve" smooth="yes"/>
      <point x="96" y="708"/>
      <point x="25" y="601"/>
      <point x="25" y="480" type="curve" smooth="yes"/>
      <point x="25" y="320"/>
      <point x="151" y="258"/>
      <point x="291" y="258" type="curve" smooth="yes"/>
      <point x="370" y="258"/>
      <point x="448" y="278"/>
      <point x="476" y="327" type="curve"/>
      <point x="463" y="128"/>
      <point x="391" y="82"/>
      <point x="291" y="82" type="curve" smooth="yes"/>
      <point x="191" y="82"/>
      <point x="133" y="128"/>
    </contour>
    <contour>
      <point x="125" y="480" type="curve" smooth="yes"/>
      <point x="125" y="575"/>
      <point x="191" y="618"/>
      <point x="291" y="618" type="curve" smooth="yes"/>
      <point x="391" y="618"/>
      <point x="450" y="575"/>
      <point x="450" y="480" type="curve"/>
      <point x="450" y="385"/>
      <point x="391" y="348"/>
      <point x="291" y="348" type="curve" smooth="yes"/>
      <point x="191" y="348"/>
      <point x="125" y="385"/>
    </contour>
  </outline>
</glyph>
<glyph name="o_o.liga.alt2" format="2">
  <advance width="1010"/>
  <outline>
    <contour>
      <point x="253" y="-9" type="curve" smooth="yes"/>
      <point x="393" y="-9"/>
      <point x="490" y="93"/>
      <point x="490" y="248" type="curve" smooth="yes"/>
      <point x="490" y="403"/>
      <point x="393" y="507"/>
      <point x="253" y="507" type="curve" smooth="yes"/>
      <point x="113" y="507"/>
      <point x="15" y="403"/>
      <point x="15" y="248" type="curve" smooth="yes"/>
      <point x="15" y="93"/>
      <point x="113" y="-9"/>
    </contour>
    <contour>
      <point x="253" y="71" type="curve" smooth="yes"/>
      <point x="163" y="71"/>
      <point x="115" y="138"/>
      <point x="115" y="248" type="curve" smooth="yes"/>
      <point x="115" y="358"/>
      <point x="163" y="427"/>
      <point x="253" y="427" type="curve" smooth="yes"/>
      <point x="343" y="427"/>
      <point x="390" y="358"/>
      <point x="390" y="248" type="curve" smooth="yes"/>
      <point x="390" y="138"/>
      <point x="343" y="71"/>
    </contour>
    <contour>
      <point x="758" y="-9" type="curve" smooth="yes"/>
      <point x="898" y="-9"/>
      <point x="995" y="93"/>
      <point x="995" y="248" type="curve" smooth="yes"/>
      <point x="995" y="403"/>
      <point x="898" y="507"/>
      <point x="758" y="507" type="curve" smooth="yes"/>
      <point x="618" y="507"/>
      <point x="520" y="403"/>
      <point x="520" y="248" type="curve" smooth="yes"/>
      <point x="520" y="93"/>
      <point x="618" y="-9"/>
    </contour>
    <contour>
      <point x="758" y="71" type="curve" smooth="yes"/>
      <point x="668" y="71"/>
      <point x="620" y="138"/>
      <point x="620" y="248" type="curve" smooth="yes"/>
      <point x="620" y="358"/>
      <point x="668" y="427"/>
      <point x="758" y="427" type="curve" smooth="yes"/>
      <point x="848" y="427"/>
      <point x="895" y="358"/>
      <point x="895" y="248" type="curve" smooth="yes"/>
      <point x="895" y="138"/>
      <point x="848" y="71"/>
    </contour>
  </outline>
</glyph>
<glyph name="o_o.liga.alt3" format="2">
  <advance width="1010"/>
  <outline>
    <contour>
      <point x="253" y="-8" type="curve" smooth="yes"/>
      <point x="393" y="-8"/>
      <point x="490" y="94"/>
      <point x="490" y="249" type="curve" smooth="yes"/>
      <point x="490" y="404"/>
      <point x="393" y="508"/>
      <point x="253" y="508" type="curve" smooth="yes"/>
      <point x="113" y="508"/>
      <point x="15" y="404"/>
      <point x="15" y="249" type="curve" smooth="yes"/>
      <point x="15" y="94"/>
      <point x="113" y="-8"/>
    </contour>
    <contour>
      <point x="253" y="72" type="curve" smooth="yes"/>
      <point x="163" y="72"/>
      <point x="115" y="139"/>
      <point x="115" y="249" type="curve" smooth="yes"/>
      <point x="115" y="359"/>
      <point x="163" y="428"/>
      <point x="253" y="428" type="curve" smooth="yes"/>
      <point x="343" y="428"/>
      <point x="390" y="359"/>
      <point x="390" y="249" type="curve" smooth="yes"/>
      <point x="390" y="139"/>
      <point x="343" y="72"/>
    </contour>
    <contour>
      <point x="758" y="-8" type="curve" smooth="yes"/>
      <point x="898" y="-8"/>
      <point x="995" y="94"/>
      <point x="995" y="249" type="curve" smooth="yes"/>
      <point x="995" y="404"/>
      <point x="898" y="508"/>
      <point x="758" y="508" type="curve" smooth="yes"/>
      <point x="618" y="508"/>
      <point x="520" y="404"/>
      <point x="520" y="249" type="curve" smooth="yes"/>
      <point x="520" y="94"/>
      <point x="618" y="-8"/>
    </contour>
    <contour>
      <point x="758" y="72" type="curve" smooth="yes"/>
      <point x="668" y="72"/>
      <point x="620" y="139"/>
      <point x="620" y="249" type="curve" smooth="yes"/>
      <point x="620" y="359"/>
      <point x="668" y="428"/>
      <point x="758" y="428" type="curve" smooth="yes"/>
      <point x="848" y="428"/>
      <point x="895" y="359"/>
      <point x="895" y="249" type="curve" smooth="yes"/>
      <point x="895" y="139"/>
      <point x="848" y="72"/>
    </contour>
  </outline>
</glyph>
<glyph name="p.fina" format="2">
  <advance width="512"/>
  <outline>
    <contour>
      <point x="35" y="500" type="line"/>
      <point x="35" y="-200" type="line"/>
      <point x="135" y="-200" type="line"/>
      <point x="135" y="95" type="line"/>
      <point x="156" y="32"/>
      <point x="200" y="-8"/>
      <point x="289" y="-8" type="curve" smooth="yes"/>
      <point x="429" y="-8"/>
      <point x="497" y="92"/>
      <point x="497" y="250" type="curve" smooth="yes"/>
      <point x="497" y="400"/>
      <point x="429" y="508"/>
      <point x="289" y="508" type="curve" smooth="yes"/>
      <point x="204" y="508"/>
      <point x="158" y="469"/>
      <point x="135" y="399" type="curve"/>
      <point x="135" y="500" type="line"/>
    </contour>
    <contour>
      <point x="269" y="72" type="curve" smooth="yes"/>
      <point x="174" y="72"/>
      <point x="135" y="140"/>
      <point x="135" y="250" type="curve" smooth="yes"/>
      <point x="135" y="360"/>
      <point x="174" y="428"/>
      <point x="269" y="428" type="curve" smooth="yes"/>
      <point x="363" y="428"/>
      <point x="397" y="360"/>
      <point x="397" y="250" type="curve" smooth="yes"/>
      <point x="397" y="140"/>
      <point x="363" y="72"/>
    </contour>
  </outline>
</glyph>
<glyph name="p_p.liga.alt2" format="2">
  <advance width="1029"/>
  <outline>
    <contour>
      <point x="35" y="500" type="line"/>
      <point x="35" y="-200" type="line"/>
      <point x="135" y="-200" type="line"/>
      <point x="135" y="95" type="line"/>
      <point x="156" y="32"/>
      <point x="200" y="-8"/>
      <point x="289" y="-8" type="curve" smooth="yes"/>
      <point x="429" y="-8"/>
      <point x="497" y="92"/>
      <point x="497" y="250" type="curve" smooth="yes"/>
      <point x="497" y="400"/>
      <point x="429" y="508"/>
      <point x="289" y="508" type="curve" smooth="yes"/>
      <point x="204" y="508"/>
      <point x="158" y="469"/>
      <point x="135" y="399" type="curve"/>
      <point x="135" y="500" type="line"/>
    </contour>
    <contour>
      <point x="269" y="72" type="curve" smooth="yes"/>
      <point x="174" y="72"/>
      <point x="135" y="140"/>
      <point x="135" y="250" type="curve" smooth="yes"/>
      <point x="135" y="360"/>
      <point x="174" y="428"/>
      <point x="269" y="428" type="curve" smooth="yes"/>
      <point x="363" y="428"/>
      <point x="397" y="360"/>
      <point x="397" y="250" type="curve" smooth="yes"/>
      <point x="397" y="140"/>
      <point x="363" y="72"/>
    </contour>
    <contour>
      <point x="552" y="500" type="line"/>
      <point x="552" y="-200" type="line"/>
      <point x="652" y="-200" type="line"/>
      <point x="652" y="95" type="line"/>
      <point x="673" y="32"/>
      <point x="717" y="-8"/>
      <point x="806" y="-8" type="curve" smooth="yes"/>
      <point x="946" y="-8"/>
      <point x="1014" y="92"/>
      <point x="1014" y="250" type="curve" smooth="yes"/>
      <point x="1014" y="400"/>
      <point x="946" y="508"/>
      <point x="806" y="508" type="curve" smooth="yes"/>
      <point x="721" y="508"/>
      <point x="675" y="469"/>
      <point x="652" y="399" type="curve"/>
      <point x="652" y="500" type="line"/>
    </contour>
    <contour>
      <point x="786" y="72" type="curve" smooth="yes"/>
      <point x="691" y="72"/>
      <point x="652" y="140"/>
      <point x="652" y="250" type="curve" smooth="yes"/>
      <point x="652" y="360"/>
      <point x="691" y="428"/>
      <point x="786" y="428" type="curve" smooth="yes"/>
      <point x="880" y="428"/>
      <point x="914" y="360"/>
      <point x="914" y="250" type="curve" smooth="yes"/>
      <point x="914" y="140"/>
      <point x="880" y="72"/>
    </contour>
  </outline>
</glyph>
<glyph name="q_q.liga" format="2">
  <advance width="1019"/>
  <outline>
    <contour>
      <point x="477" y="500" type="line"/>
      <point x="377" y="500" type="line"/>
      <point x="377" y="-200" type="line"/>
      <point x="477" y="-200" type="line"/>
    </contour>
    <contour>
      <point x="223" y="-8" type="curve" smooth="yes"/>
      <point x="357" y="-8"/>
      <point x="395" y="104"/>
      <point x="395" y="250" type="curve" smooth="yes"/>
      <point x="395" y="411"/>
      <point x="375" y="508"/>
      <point x="223" y="508" type="curve" smooth="yes"/>
      <point x="93" y="508"/>
      <point x="15" y="398"/>
      <point x="15" y="248" type="curve" smooth="yes"/>
      <point x="15" y="90"/>
      <point x="73" y="-8"/>
    </contour>
    <contour>
      <point x="244" y="72" type="curve" smooth="yes"/>
      <point x="154" y="72"/>
      <point x="116" y="140"/>
      <point x="115" y="248" type="curve" smooth="yes"/>
      <point x="116" y="361"/>
      <point x="169" y="428"/>
      <point x="256" y="428" type="curve" smooth="yes"/>
      <point x="333" y="428"/>
      <point x="377" y="353"/>
      <point x="377" y="250" type="curve" smooth="yes"/>
      <point x="377" y="146"/>
      <point x="322" y="72"/>
    </contour>
    <contour>
      <point x="984" y="500" type="line"/>
      <point x="884" y="500" type="line"/>
      <point x="884" y="-200" type="line"/>
      <point x="984" y="-200" type="line"/>
    </contour>
    <contour>
      <point x="730" y="-8" type="curve" smooth="yes"/>
      <point x="864" y="-8"/>
      <point x="902" y="104"/>
      <point x="902" y="250" type="curve" smooth="yes"/>
      <point x="902" y="411"/>
      <point x="882" y="508"/>
      <point x="730" y="508" type="curve" smooth="yes"/>
      <point x="600" y="508"/>
      <point x="522" y="398"/>
      <point x="522" y="248" type="curve" smooth="yes"/>
      <point x="522" y="90"/>
      <point x="580" y="-8"/>
    </contour>
    <contour>
      <point x="751" y="72" type="curve" smooth="yes"/>
      <point x="661" y="72"/>
      <point x="623" y="140"/>
      <point x="622" y="248" type="curve" smooth="yes"/>
      <point x="623" y="361"/>
      <point x="676" y="428"/>
      <point x="763" y="428" type="curve" smooth="yes"/>
      <point x="840" y="428"/>
      <point x="884" y="353"/>
      <point x="884" y="250" type="curve" smooth="yes"/>
      <point x="884" y="146"/>
      <point x="829" y="72"/>
    </contour>
  </outline>
</glyph>
<glyph name="r_r.liga.alt1" format="2">
  <advance width="623"/>
  <outline>
    <contour>
      <point x="35" y="500" type="line"/>
      <point x="35" y="0" type="line"/>
      <point x="135" y="0" type="line"/>
      <point x="135" y="399" type="line"/>
      <point x="135" y="500" type="line"/>
    </contour>
    <contour>
      <point x="297" y="428" type="line"/>
      <point x="314" y="508" type="line"/>
      <point x="289" y="508" type="line"/>
      <point x="151" y="508"/>
      <point x="117" y="411"/>
      <point x="117" y="250" type="curve"/>
      <point x="135" y="250" type="line"/>
      <point x="135" y="374"/>
      <point x="185" y="428"/>
      <point x="285" y="428" type="curve"/>
    </contour>
    <contour>
      <point x="344" y="500" type="line"/>
      <point x="344" y="0" type="line"/>
      <point x="444" y="0" type="line"/>
      <point x="444" y="399" type="line"/>
      <point x="444" y="500" type="line"/>
    </contour>
    <contour>
      <point x="606" y="428" type="line"/>
      <point x="623" y="508" type="line"/>
      <point x="598" y="508" type="line"/>
      <point x="460" y="508"/>
      <point x="426" y="411"/>
      <point x="426" y="250" type="curve"/>
      <point x="444" y="250" type="line"/>
      <point x="444" y="374"/>
      <point x="494" y="428"/>
      <point x="594" y="428" type="curve"/>
    </contour>
  </outline>
</glyph>
<glyph name="s.fina" format="2">
  <advance width="439"/>
  <outline>
    <contour>
      <point x="15" y="357" type="curve"/>
      <point x="15" y="172"/>
      <point x="324" y="243"/>
      <point x="324" y="138" type="curve"/>
      <point x="324" y="102"/>
      <point x="288" y="72"/>
      <point x="211" y="72" type="curve" smooth="yes"/>
      <point x="146" y="72"/>
      <point x="107" y="96"/>
      <point x="107" y="146" type="curve"/>
      <point x="16" y="141" type="line"/>
      <point x="16" y="51"/>
      <point x="91" y="-8"/>
      <point x="211" y="-8" type="curve" smooth="yes"/>
      <point x="336" y="-8"/>
      <point x="424" y="61"/>
      <point x="424" y="148" type="curve" smooth="yes"/>
      <point x="424" y="323"/>
      <point x="115" y="272"/>
      <point x="115" y="367" type="curve"/>
      <point x="115" y="403"/>
      <point x="159" y="428"/>
      <point x="211" y="428" type="curve" smooth="yes"/>
      <point x="281" y="428"/>
      <point x="329" y="381"/>
      <point x="329" y="331" type="curve"/>
      <point x="420" y="336" type="line"/>
      <point x="420" y="426"/>
      <point x="336" y="508"/>
      <point x="211" y="508" type="curve" smooth="yes"/>
      <point x="86" y="508"/>
      <point x="15" y="443"/>
    </contour>
  </outline>
</glyph>
<glyph name="s_s.liga.alt2" format="2">
  <advance width="878"/>
  <outline>
    <contour>
      <point x="15" y="357" type="curve"/>
      <point x="15" y="172"/>
      <point x="324" y="243"/>
      <point x="324" y="138" type="curve"/>
      <point x="324" y="102"/>
      <point x="288" y="72"/>
      <point x="211" y="72" type="curve" smooth="yes"/>
      <point x="146" y="72"/>
      <point x="107" y="96"/>
      <point x="107" y="146" type="curve"/>
      <point x="16" y="141" type="line"/>
      <point x="16" y="51"/>
      <point x="91" y="-8"/>
      <point x="211" y="-8" type="curve" smooth="yes"/>
      <point x="336" y="-8"/>
      <point x="424" y="61"/>
      <point x="424" y="148" type="curve" smooth="yes"/>
      <point x="424" y="323"/>
      <point x="115" y="272"/>
      <point x="115" y="367" type="curve"/>
      <point x="115" y="403"/>
      <point x="159" y="428"/>
      <point x="211" y="428" type="curve" smooth="yes"/>
      <point x="281" y="428"/>
      <point x="329" y="381"/>
      <point x="329" y="331" type="curve"/>
      <point x="420" y="336" type="line"/>
      <point x="420" y="426"/>
      <point x="336" y="508"/>
      <point x="211" y="508" type="curve" smooth="yes"/>
      <point x="86" y="508"/>
      <point x="15" y="443"/>
    </contour>
    <contour>
      <point x="454" y="357" type="curve"/>
      <point x="454" y="172"/>
      <point x="763" y="243"/>
      <point x="763" y="138" type="curve"/>
      <point x="763" y="102"/>
      <point x="727" y="72"/>
      <point x="650" y="72" type="curve" smooth="yes"/>
      <point x="585" y="72"/>
      <point x="546" y="96"/>
      <point x="546" y="146" type="curve"/>
      <point x="455" y="141" type="line"/>
      <point x="455" y="51"/>
      <point x="530" y="-8"/>
      <point x="650" y="-8" type="curve" smooth="yes"/>
      <point x="775" y="-8"/>
      <point x="863" y="61"/>
      <point x="863" y="148" type="curve" smooth="yes"/>
      <point x="863" y="323"/>
      <point x="554" y="272"/>
      <point x="554" y="367" type="curve"/>
      <point x="554" y="403"/>
      <point x="598" y="428"/>
      <point x="650" y="428" type="curve" smooth="yes"/>
      <point x="720" y="428"/>
      <point x="768" y="381"/>
      <point x="768" y="331" type="curve"/>
      <point x="859" y="336" type="line"/>
      <point x="859" y="426"/>
      <point x="775" y="508"/>
      <point x="650" y="508" type="curve" smooth="yes"/>
      <point x="525" y="508"/>
      <point x="454" y="443"/>
    </contour>
  </outline>
</glyph>
<glyph name="seven.alt1" format="2">
  <advance width="527"/>
  <outline>
    <contour>
      <point x="502" y="700" type="line"/>
      <point x="25" y="700" type="line"/>
      <point x="25" y="610" type="line"/>
      <point x="377" y="610" type="line"/>
      <point x="277" y="502"/>
      <point x="200" y="297"/>
      <point x="200" y="0" type="curve"/>
      <point x="300" y="0" type="line"/>
      <point x="300" y="297"/>
      <point x="390" y="502"/>
      <point x="500" y="610" type="curve"/>
    </contour>
  </outline>
</glyph>
<glyph name="t.fina.alt" format="2">
  <advance width="387"/>
  <outline>
    <contour>
      <point x="372" y="32" type="curve"/>
      <point x="372" y="112" type="line"/>
      <point x="351" y="95"/>
      <point x="322" y="71"/>
      <point x="276" y="71" type="curve" smooth="yes"/>
      <point x="222" y="71"/>
      <point x="193" y="104"/>
      <point x="193" y="163" type="curve"/>
      <point x="193" y="605" type="line"/>
      <point x="93" y="605" type="line"/>
      <point x="93" y="158" type="line" smooth="yes"/>
      <point x="93" y="34"/>
      <point x="195" y="-9"/>
      <point x="267" y="-9" type="curve" smooth="yes"/>
      <point x="317" y="-9"/>
      <point x="347" y="12"/>
    </contour>
    <contour>
      <point x="15" y="496" type="line"/>
      <point x="15" y="416" type="line"/>
      <point x="357" y="416" type="line"/>
      <point x="357" y="496" type="line"/>
    </contour>
  </outline>
</glyph>
<glyph name="t_t.liga.alt2" format="2">
  <advance width="774"/>
  <outline>
    <contour>
      <point x="372" y="30" type="curve"/>
      <point x="372" y="110" type="line"/>
      <point x="351" y="93"/>
      <point x="322" y="69"/>
      <point x="276" y="69" type="curve" smooth="yes"/>
      <point x="222" y="69"/>
      <point x="193" y="102"/>
      <point x="193" y="161" type="curve"/>
      <point x="193" y="609" type="line"/>
      <point x="93" y="609" type="line"/>
      <point x="93" y="156" type="line" smooth="yes"/>
      <point x="93" y="32"/>
      <point x="195" y="-11"/>
      <point x="267" y="-11" type="curve" smooth="yes"/>
      <point x="317" y="-11"/>
      <point x="347" y="10"/>
    </contour>
    <contour>
      <point x="15" y="500" type="line"/>
      <point x="15" y="420" type="line"/>
      <point x="357" y="420" type="line"/>
      <point x="357" y="500" type="line"/>
    </contour>
    <contour>
      <point x="759" y="30" type="curve"/>
      <point x="759" y="110" type="line"/>
      <point x="738" y="93"/>
      <point x="709" y="69"/>
      <point x="663" y="69" type="curve" smooth="yes"/>
      <point x="609" y="69"/>
      <point x="580" y="102"/>
      <point x="580" y="161" type="curve"/>
      <point x="580" y="609" type="line"/>
      <point x="480" y="609" type="line"/>
      <point x="480" y="156" type="line" smooth="yes"/>
      <point x="480" y="32"/>
      <point x="582" y="-11"/>
      <point x="654" y="-11" type="curve" smooth="yes"/>
      <point x="704" y="-11"/>
      <point x="734" y="10"/>
    </contour>
    <contour>
      <point x="402" y="500" type="line"/>
      <point x="402" y="420" type="line"/>
      <point x="744" y="420" type="line"/>
      <point x="744" y="500" type="line"/>
    </contour>
  </outline>
</glyph>
<glyph name="t_t.liga.alt3" format="2">
  <advance width="714"/>
  <outline>
    <contour>
      <point x="372" y="32" type="curve"/>
      <point x="372" y="112" type="line"/>
      <point x="351" y="95"/>
      <point x="322" y="71"/>
      <point x="276" y="71" type="curve" smooth="yes"/>
      <point x="222" y="71"/>
      <point x="193" y="104"/>
      <point x="193" y="163" type="curve"/>
      <point x="193" y="605" type="line"/>
      <point x="93" y="605" type="line"/>
      <point x="93" y="158" type="line" smooth="yes"/>
      <point x="93" y="34"/>
      <point x="195" y="-9"/>
      <point x="267" y="-9" type="curve" smooth="yes"/>
      <point x="317" y="-9"/>
      <point x="347" y="12"/>
    </contour>
    <contour>
      <point x="15" y="496" type="line"/>
      <point x="15" y="416" type="line"/>
      <point x="357" y="416" type="line"/>
      <point x="357" y="496" type="line"/>
    </contour>
    <contour>
      <point x="699" y="32" type="curve"/>
      <point x="699" y="112" type="line"/>
      <point x="678" y="95"/>
      <point x="649" y="71"/>
      <point x="603" y="71" type="curve" smooth="yes"/>
      <point x="549" y="71"/>
      <point x="520" y="104"/>
      <point x="520" y="163" type="curve"/>
      <point x="520" y="605" type="line"/>
      <point x="420" y="605" type="line"/>
      <point x="420" y="158" type="line" smooth="yes"/>
      <point x="420" y="34"/>
      <point x="522" y="-9"/>
      <point x="594" y="-9" type="curve" smooth="yes"/>
      <point x="644" y="-9"/>
      <point x="674" y="12"/>
    </contour>
    <contour>
      <point x="342" y="496" type="line"/>
      <point x="342" y="416" type="line"/>
      <point x="684" y="416" type="line"/>
      <point x="684" y="496" type="line"/>
    </contour>
  </outline>
</glyph>
<glyph name="t_t.liga" format="2">
  <advance width="774"/>
  <outline>
    <contour>
      <point x="372" y="32" type="curve"/>
      <point x="372" y="112" type="line"/>
      <point x="351" y="95"/>
      <point x="322" y="71"/>
      <point x="276" y="71" type="curve" smooth="yes"/>
      <point x="222" y="71"/>
      <point x="193" y="104"/>
      <point x="193" y="163" type="curve"/>
      <point x="193" y="605" type="line"/>
      <point x="93" y="605" type="line"/>
      <point x="93" y="158" type="line" smooth="yes"/>
      <point x="93" y="34"/>
      <point x="195" y="-9"/>
      <point x="267" y="-9" type="curve" smooth="yes"/>
      <point x="317" y="-9"/>
      <point x="347" y="12"/>
    </contour>
    <contour>
      <point x="15" y="496" type="line"/>
      <point x="15" y="416" type="line"/>
      <point x="357" y="416" type="line"/>
      <point x="357" y="496" type="line"/>
    </contour>
    <contour>
      <point x="759" y="32" type="curve"/>
      <point x="759" y="112" type="line"/>
      <point x="738" y="95"/>
      <point x="709" y="71"/>
      <point x="663" y="71" type="curve" smooth="yes"/>
      <point x="609" y="71"/>
      <point x="580" y="104"/>
      <point x="580" y="163" type="curve"/>
      <point x="580" y="605" type="line"/>
      <point x="480" y="605" type="line"/>
      <point x="480" y="158" type="line" smooth="yes"/>
      <point x="480" y="34"/>
      <point x="582" y="-9"/>
      <point x="654" y="-9" type="curve" smooth="yes"/>
      <point x="704" y="-9"/>
      <point x="734" y="12"/>
    </contour>
    <contour>
      <point x="402" y="496" type="line"/>
      <point x="402" y="416" type="line"/>
      <point x="744" y="416" type="line"/>
      <point x="744" y="496" type="line"/>
    </contour>
  </outline>
</glyph>
<glyph name="three.alt1" format="2">
  <advance width="601"/>
  <outline>
    <contour>
      <point x="140" y="272" type="curve"/>
      <point x="35" y="288" type="line"/>
      <point x="27" y="250"/>
      <point x="25" y="225"/>
      <point x="25" y="207" type="curve" smooth="yes"/>
      <point x="25" y="92"/>
      <point x="111" y="-8"/>
      <point x="301" y="-8" type="curve" smooth="yes"/>
      <point x="491" y="-8"/>
      <point x="576" y="92"/>
      <point x="576" y="207" type="curve" smooth="yes"/>
      <point x="576" y="297"/>
      <point x="519" y="347"/>
      <point x="448" y="379" type="curve"/>
      <point x="499" y="413"/>
      <point x="538" y="463"/>
      <point x="538" y="524" type="curve" smooth="yes"/>
      <point x="538" y="629"/>
      <point x="441" y="708"/>
      <point x="301" y="708" type="curve" smooth="yes"/>
      <point x="161" y="708"/>
      <point x="63" y="629"/>
      <point x="63" y="524" type="curve" smooth="yes"/>
      <point x="63" y="507" type="line"/>
      <point x="163" y="500" type="line"/>
      <point x="163" y="519" type="line" smooth="yes"/>
      <point x="163" y="579"/>
      <point x="211" y="618"/>
      <point x="301" y="618" type="curve" smooth="yes"/>
      <point x="391" y="618"/>
      <point x="438" y="579"/>
      <point x="438" y="519" type="curve" smooth="yes"/>
      <point x="438" y="459"/>
      <point x="391" y="420"/>
      <point x="301" y="420" type="curve" smooth="yes"/>
      <point x="270" y="420" type="line"/>
      <point x="270" y="330" type="line"/>
      <point x="301" y="330" type="line" smooth="yes"/>
      <point x="401" y="330"/>
      <point x="471" y="302"/>
      <point x="471" y="207" type="curve" smooth="yes"/>
      <point x="471" y="112"/>
      <point x="401" y="82"/>
      <point x="301" y="82" type="curve" smooth="yes"/>
      <point x="201" y="82"/>
      <point x="130" y="112"/>
      <point x="130" y="207" type="curve" smooth="yes"/>
      <point x="130" y="232"/>
      <point x="135" y="256"/>
    </contour>
  </outline>
</glyph>
<glyph name="two.alt1" format="2">
  <advance width="563"/>
  <outline>
    <contour>
      <point x="158" y="90" type="line"/>
      <point x="409" y="244"/>
      <point x="509" y="376"/>
      <point x="509" y="524" type="curve" smooth="yes"/>
      <point x="509" y="670"/>
      <point x="412" y="708"/>
      <point x="272" y="708" type="curve" smooth="yes"/>
      <point x="132" y="708"/>
      <point x="34" y="622"/>
      <point x="34" y="467" type="curve"/>
      <point x="134" y="462" type="line"/>
      <point x="134" y="572"/>
      <point x="182" y="618"/>
      <point x="272" y="618" type="curve" smooth="yes"/>
      <point x="362" y="618"/>
      <point x="409" y="579"/>
      <point x="409" y="519" type="curve" smooth="yes"/>
      <point x="409" y="415"/>
      <point x="248" y="245"/>
      <point x="25" y="90" type="curve"/>
      <point x="26" y="0" type="line"/>
      <point x="538" y="0" type="line"/>
      <point x="538" y="90" type="line"/>
    </contour>
  </outline>
</glyph>
<glyph name="u_n.liga.alt3" format="2">
  <advance width="968"/>
  <outline>
    <contour>
      <point x="449" y="0" type="line"/>
      <point x="449" y="500" type="line"/>
      <point x="349" y="500" type="line"/>
      <point x="349" y="101" type="line"/>
      <point x="349" y="0" type="line"/>
    </contour>
    <contour>
      <point x="135" y="187" type="curve"/>
      <point x="135" y="500" type="line"/>
      <point x="35" y="500" type="line"/>
      <point x="35" y="187" type="line" smooth="yes"/>
      <point x="35" y="91"/>
      <point x="65" y="-8"/>
      <point x="205" y="-8" type="curve" smooth="yes"/>
      <point x="343" y="-8"/>
      <point x="367" y="89"/>
      <point x="367" y="250" type="curve"/>
      <point x="349" y="250" type="line"/>
      <point x="349" y="126"/>
      <point x="308" y="72"/>
      <point x="238" y="72" type="curve" smooth="yes"/>
      <point x="165" y="72"/>
      <point x="135" y="131"/>
    </contour>
    <contour>
      <point x="509" y="500" type="line"/>
      <point x="509" y="0" type="line"/>
      <point x="609" y="0" type="line"/>
      <point x="609" y="399" type="line"/>
      <point x="609" y="500" type="line"/>
    </contour>
    <contour>
      <point x="833" y="313" type="curve"/>
      <point x="833" y="0" type="line"/>
      <point x="933" y="0" type="line"/>
      <point x="933" y="313" type="line" smooth="yes"/>
      <point x="933" y="409"/>
      <point x="903" y="508"/>
      <point x="763" y="508" type="curve" smooth="yes"/>
      <point x="625" y="508"/>
      <point x="591" y="411"/>
      <point x="591" y="250" type="curve"/>
      <point x="609" y="250" type="line"/>
      <point x="609" y="374"/>
      <point x="659" y="428"/>
      <point x="729" y="428" type="curve" smooth="yes"/>
      <point x="802" y="428"/>
      <point x="833" y="369"/>
    </contour>
  </outline>
</glyph>
<glyph name="u_u.liga.alt3" format="2">
  <advance width="958"/>
  <outline>
    <contour>
      <point x="449" y="0" type="line"/>
      <point x="449" y="500" type="line"/>
      <point x="349" y="500" type="line"/>
      <point x="349" y="101" type="line"/>
      <point x="349" y="0" type="line"/>
    </contour>
    <contour>
      <point x="135" y="187" type="curve"/>
      <point x="135" y="500" type="line"/>
      <point x="35" y="500" type="line"/>
      <point x="35" y="187" type="line" smooth="yes"/>
      <point x="35" y="91"/>
      <point x="65" y="-8"/>
      <point x="205" y="-8" type="curve" smooth="yes"/>
      <point x="343" y="-8"/>
      <point x="367" y="89"/>
      <point x="367" y="250" type="curve"/>
      <point x="349" y="250" type="line"/>
      <point x="349" y="126"/>
      <point x="308" y="72"/>
      <point x="238" y="72" type="curve" smooth="yes"/>
      <point x="165" y="72"/>
      <point x="135" y="131"/>
    </contour>
    <contour>
      <point x="923" y="0" type="line"/>
      <point x="923" y="500" type="line"/>
      <point x="823" y="500" type="line"/>
      <point x="823" y="101" type="line"/>
      <point x="823" y="0" type="line"/>
    </contour>
    <contour>
      <point x="609" y="187" type="curve"/>
      <point x="609" y="500" type="line"/>
      <point x="509" y="500" type="line"/>
      <point x="509" y="187" type="line" smooth="yes"/>
      <point x="509" y="91"/>
      <point x="539" y="-8"/>
      <point x="679" y="-8" type="curve" smooth="yes"/>
      <point x="817" y="-8"/>
      <point x="841" y="89"/>
      <point x="841" y="250" type="curve"/>
      <point x="823" y="250" type="line"/>
      <point x="823" y="126"/>
      <point x="782" y="72"/>
      <point x="712" y="72" type="curve" smooth="yes"/>
      <point x="639" y="72"/>
      <point x="609" y="131"/>
    </contour>
  </outline>
</glyph>
<glyph name="v_v.liga.alt2" format="2">
  <advance width="959"/>
  <outline>
    <contour>
      <point x="0" y="501" type="line"/>
      <point x="190" y="0" type="line"/>
      <point x="289" y="0" type="line"/>
      <point x="478" y="500" type="line"/>
      <point x="378" y="500" type="line"/>
      <point x="238" y="131" type="line"/>
      <point x="98" y="500" type="line"/>
    </contour>
    <contour>
      <point x="481" y="500" type="line"/>
      <point x="671" y="0" type="line"/>
      <point x="770" y="0" type="line"/>
      <point x="959" y="500" type="line"/>
      <point x="859" y="500" type="line"/>
      <point x="719" y="131" type="line"/>
      <point x="579" y="500" type="line"/>
    </contour>
  </outline>
</glyph>
<glyph name="v_v.liga.alt3" format="2">
  <advance width="976"/>
  <outline>
    <contour>
      <point x="0" y="500" type="line"/>
      <point x="190" y="1" type="line"/>
      <point x="289" y="1" type="line"/>
      <point x="478" y="500" type="line"/>
      <point x="378" y="500" type="line"/>
      <point x="238" y="132" type="line"/>
      <point x="98" y="500" type="line"/>
    </contour>
    <contour>
      <point x="498" y="500" type="line"/>
      <point x="688" y="1" type="line"/>
      <point x="787" y="1" type="line"/>
      <point x="976" y="500" type="line"/>
      <point x="876" y="500" type="line"/>
      <point x="736" y="132" type="line"/>
      <point x="596" y="500" type="line"/>
    </contour>
  </outline>
</glyph>
<glyph name="v_v.liga" format="2">
  <advance width="956"/>
  <outline>
    <contour>
      <point x="0" y="500" type="line"/>
      <point x="190" y="1" type="line"/>
      <point x="289" y="1" type="line"/>
      <point x="478" y="499" type="line"/>
      <point x="378" y="499" type="line"/>
      <point x="238" y="132" type="line"/>
      <point x="98" y="500" type="line"/>
    </contour>
    <contour>
      <point x="478" y="500" type="line"/>
      <point x="668" y="1" type="line"/>
      <point x="767" y="1" type="line"/>
      <point x="956" y="499" type="line"/>
      <point x="856" y="499" type="line"/>
      <point x="716" y="132" type="line"/>
      <point x="576" y="500" type="line"/>
    </contour>
  </outline>
</glyph>
<glyph name="w_w.liga.alt1" format="2">
  <advance width="1300"/>
  <outline>
    <contour>
      <point x="0" y="500" type="line"/>
      <point x="122" y="0" type="line"/>
      <point x="222" y="0" type="line"/>
      <point x="320" y="362" type="line"/>
      <point x="404" y="0" type="line"/>
      <point x="504" y="0" type="line"/>
      <point x="650" y="499" type="line"/>
      <point x="550" y="499" type="line"/>
      <point x="453" y="132" type="line"/>
      <point x="370" y="499" type="line"/>
      <point x="280" y="499" type="line"/>
      <point x="179" y="132" type="line"/>
      <point x="100" y="500" type="line"/>
    </contour>
    <contour>
      <point x="650" y="500" type="line"/>
      <point x="772" y="0" type="line"/>
      <point x="872" y="0" type="line"/>
      <point x="970" y="362" type="line"/>
      <point x="1054" y="0" type="line"/>
      <point x="1154" y="0" type="line"/>
      <point x="1300" y="499" type="line"/>
      <point x="1200" y="499" type="line"/>
      <point x="1103" y="132" type="line"/>
      <point x="1020" y="499" type="line"/>
      <point x="930" y="499" type="line"/>
      <point x="829" y="132" type="line"/>
      <point x="750" y="500" type="line"/>
    </contour>
  </outline>
</glyph>
<glyph name="w_w.liga.alt3" format="2">
  <advance width="1320"/>
  <outline>
    <contour>
      <point x="0" y="500" type="line"/>
      <point x="122" y="0" type="line"/>
      <point x="222" y="0" type="line"/>
      <point x="320" y="362" type="line"/>
      <point x="404" y="0" type="line"/>
      <point x="504" y="0" type="line"/>
      <point x="650" y="500" type="line"/>
      <point x="550" y="500" type="line"/>
      <point x="453" y="132" type="line"/>
      <point x="370" y="499" type="line"/>
      <point x="280" y="499" type="line"/>
      <point x="179" y="132" type="line"/>
      <point x="100" y="500" type="line"/>
    </contour>
    <contour>
      <point x="670" y="500" type="line"/>
      <point x="792" y="0" type="line"/>
      <point x="892" y="0" type="line"/>
      <point x="990" y="362" type="line"/>
      <point x="1074" y="0" type="line"/>
      <point x="1174" y="0" type="line"/>
      <point x="1320" y="500" type="line"/>
      <point x="1220" y="500" type="line"/>
      <point x="1123" y="132" type="line"/>
      <point x="1040" y="499" type="line"/>
      <point x="950" y="499" type="line"/>
      <point x="849" y="132" type="line"/>
      <point x="770" y="500" type="line"/>
    </contour>
  </outline>
</glyph>
<glyph name="x_x.liga.alt1" format="2">
  <advance width="944"/>
  <outline>
    <contour>
      <point x="0" y="499" type="line"/>
      <point x="176" y="250" type="line"/>
      <point x="2" y="0" type="line"/>
      <point x="109" y="0" type="line"/>
      <point x="240" y="180" type="line"/>
      <point x="369" y="0" type="line"/>
      <point x="472" y="0" type="line"/>
      <point x="303" y="250" type="line"/>
      <point x="470" y="499" type="line"/>
      <point x="364" y="499" type="line"/>
      <point x="240" y="310" type="line"/>
      <point x="106" y="499" type="line"/>
    </contour>
    <contour>
      <point x="472" y="499" type="line"/>
      <point x="648" y="250" type="line"/>
      <point x="474" y="0" type="line"/>
      <point x="581" y="0" type="line"/>
      <point x="712" y="180" type="line"/>
      <point x="841" y="0" type="line"/>
      <point x="944" y="0" type="line"/>
      <point x="775" y="250" type="line"/>
      <point x="942" y="499" type="line"/>
      <point x="836" y="499" type="line"/>
      <point x="712" y="310" type="line"/>
      <point x="578" y="499" type="line"/>
    </contour>
  </outline>
</glyph>
<glyph name="y.fina.alt" format="2">
  <advance width="478"/>
  <outline>
    <contour>
      <point x="0" y="500" type="line"/>
      <point x="189" y="0" type="line"/>
      <point x="289" y="0" type="line"/>
      <point x="478" y="499" type="line"/>
      <point x="378" y="499" type="line"/>
      <point x="238" y="132" type="line"/>
      <point x="98" y="500" type="line"/>
    </contour>
    <contour>
      <point x="289" y="0" type="curve"/>
      <point x="189" y="0" type="line"/>
      <point x="187" y="-57"/>
      <point x="154" y="-125"/>
      <point x="90" y="-127" type="curve" smooth="yes"/>
      <point x="63" y="-128"/>
      <point x="26" y="-118"/>
      <point x="5" y="-101" type="curve"/>
      <point x="5" y="-181" type="line"/>
      <point x="31" y="-198"/>
      <point x="67" y="-208"/>
      <point x="100" y="-208" type="curve" smooth="yes"/>
      <point x="195" y="-208"/>
      <point x="249" y="-115"/>
    </contour>
  </outline>
</glyph>
<glyph name="y_y.liga.alt1" format="2">
  <advance width="956"/>
  <outline>
    <contour>
      <point x="0" y="500" type="line"/>
      <point x="189" y="0" type="line"/>
      <point x="289" y="0" type="line"/>
      <point x="478" y="499" type="line"/>
      <point x="378" y="499" type="line"/>
      <point x="238" y="132" type="line"/>
      <point x="98" y="500" type="line"/>
    </contour>
    <contour>
      <point x="289" y="0" type="curve"/>
      <point x="189" y="0" type="line"/>
      <point x="187" y="-57"/>
      <point x="154" y="-125"/>
      <point x="90" y="-127" type="curve" smooth="yes"/>
      <point x="63" y="-128"/>
      <point x="26" y="-118"/>
      <point x="5" y="-101" type="curve"/>
      <point x="5" y="-181" type="line"/>
      <point x="31" y="-198"/>
      <point x="67" y="-208"/>
      <point x="100" y="-208" type="curve" smooth="yes"/>
      <point x="195" y="-208"/>
      <point x="249" y="-115"/>
    </contour>
    <contour>
      <point x="478" y="500" type="line"/>
      <point x="667" y="0" type="line"/>
      <point x="767" y="0" type="line"/>
      <point x="956" y="499" type="line"/>
      <point x="856" y="499" type="line"/>
      <point x="716" y="132" type="line"/>
      <point x="576" y="500" type="line"/>
    </contour>
    <contour>
      <point x="767" y="0" type="curve"/>
      <point x="667" y="0" type="line"/>
      <point x="665" y="-57"/>
      <point x="632" y="-125"/>
      <point x="568" y="-127" type="curve" smooth="yes"/>
      <point x="541" y="-128"/>
      <point x="504" y="-118"/>
      <point x="483" y="-101" type="curve"/>
      <point x="483" y="-181" type="line"/>
      <point x="509" y="-198"/>
      <point x="545" y="-208"/>
      <point x="578" y="-208" type="curve" smooth="yes"/>
      <point x="673" y="-208"/>
      <point x="727" y="-115"/>
    </contour>
  </outline>
</glyph>
<glyph name="z.fina" format="2">
  <advance width="359"/>
  <outline>
    <contour>
      <point x="359" y="499" type="line"/>
      <point x="0" y="500" type="line"/>
      <point x="0" y="419" type="line"/>
      <point x="231" y="419" type="line"/>
      <point x="0" y="50" type="line"/>
      <point x="0" y="0" type="line"/>
      <point x="359" y="0" type="line"/>
      <point x="359" y="80" type="line"/>
      <point x="128" y="80" type="line"/>
      <point x="359" y="449" type="line"/>
    </contour>
  </outline>
</glyph>
<glyph name="z_z.liga.alt1" format="2">
  <advance width="718"/>
  <outline>
    <contour>
      <point x="359" y="499" type="line"/>
      <point x="0" y="500" type="line"/>
      <point x="0" y="419" type="line"/>
      <point x="231" y="419" type="line"/>
      <point x="0" y="50" type="line"/>
      <point x="0" y="0" type="line"/>
      <point x="359" y="0" type="line"/>
      <point x="359" y="80" type="line"/>
      <point x="128" y="80" type="line"/>
      <point x="359" y="449" type="line"/>
    </contour>
    <contour>
      <point x="718" y="499" type="line"/>
      <point x="359" y="500" type="line"/>
      <point x="359" y="419" type="line"/>
      <point x="590" y="419" type="line"/>
      <point x="359" y="50" type="line"/>
      <point x="359" y="0" type="line"/>
      <point x="718" y="0" type="line"/>
      <point x="718" y="80" type="line"/>
      <point x="487" y="80" type="line"/>
      <point x="718" y="449" type="line"/>
    </contour>
  </outline>
</glyph>
<glyph name="z_z.liga.alt3" format="2">
  <advance width="748"/>
  <outline>
    <contour>
      <point x="359" y="500" type="line"/>
      <point x="0" y="500" type="line"/>
      <point x="0" y="419" type="line"/>
      <point x="231" y="419" type="line"/>
      <point x="0" y="50" type="line"/>
      <point x="0" y="0" type="line"/>
      <point x="359" y="0" type="line"/>
      <point x="359" y="80" type="line"/>
      <point x="128" y="80" type="line"/>
      <point x="359" y="449" type="line"/>
    </contour>
    <contour>
      <point x="748" y="500" type="line"/>
      <point x="389" y="500" type="line"/>
      <point x="389" y="419" type="line"/>
      <point x="620" y="419" type="line"/>
      <point x="389" y="50" type="line"/>
      <point x="389" y="0" type="line"/>
      <point x="748" y="0" type="line"/>
      <point x="748" y="80" type="line"/>
      <point x="517" y="80" type="line"/>
      <point x="748" y="449" type="line"/>
    </contour>
  </outline>
</glyph>
